<svg xmlns="http://www.w3.org/2000/svg" viewBox="0 0 1800 1200" preserveAspectRatio="xMinYMin meet"><path d="M1866.667 1306.667H0V0h1866.667v1306.667" fill="#16253f"/><path d="M1390.413 684.23c-12.24 242.494-196.832 439.631-439.633 439.631-242.803 0-439.632-196.829-439.632-439.63 0-242.803 196.84-437.35 439.632-439.632 248.6-2.339 452.14 191.79 439.633 439.632" fill="#16253f"/><path d="M1373.613 684.23c-11.293 233.24-189.308 422.835-422.833 422.835-233.525 0-422.835-189.309-422.835-422.834 0-233.526 189.319-420.728 422.835-422.836 238.877-2.158 434.38 184.657 422.833 422.836" fill="#1d2c47"/><path d="M1356.813 684.23c-10.346 223.987-181.785 406.038-406.033 406.038-224.25 0-406.039-181.79-406.039-406.037 0-224.25 181.799-404.107 406.039-406.039 229.155-1.977 416.62 177.524 406.033 406.039" fill="#25344f"/><path d="M1340.027 684.23c-9.416 214.735-174.275 389.24-389.247 389.24S561.539 899.202 561.539 684.23 735.816 296.746 950.78 294.99c219.432-1.8 398.86 170.391 389.247 389.24" fill="#2e3d58"/><path d="M1323.224 684.23c-8.47 205.482-166.75 372.443-372.444 372.443-205.696 0-372.444-166.748-372.444-372.442 0-205.696 166.756-370.864 372.444-372.444 209.71-1.619 381.099 163.258 372.444 372.444" fill="#374762"/><path d="M1306.427 684.23c-7.528 196.229-159.228 355.647-355.647 355.647-196.419 0-355.648-159.229-355.648-355.646 0-196.419 159.236-354.243 355.648-355.648 199.987-1.439 363.34 156.126 355.647 355.648" fill="#42526c"/><path d="M1289.63 684.23c-6.587 186.975-151.709 338.85-338.85 338.85-187.143 0-338.85-151.708-338.85-338.85 0-187.142 151.714-337.62 338.85-338.85 190.264-1.259 345.581 148.995 338.85 338.85" fill="#4d5f77"/><path d="M1272.833 684.23c-5.646 177.723-144.189 322.053-322.053 322.053-177.865 0-322.053-144.188-322.053-322.052 0-177.866 144.193-321 322.053-322.054 180.541-1.08 327.823 141.862 322.053 322.054" fill="#5a6d83"/><path d="M1256.036 684.23c-4.705 168.47-136.668 305.257-305.256 305.257-168.59 0-305.256-136.668-305.256-305.256 0-168.59 136.672-304.379 305.256-305.258 170.819-.898 310.064 134.73 305.256 305.258" fill="#687d8f"/><path d="M1239.239 684.23c-3.764 159.217-129.148 288.46-288.459 288.46-159.312 0-288.46-129.149-288.46-288.46 0-159.311 129.15-287.757 288.46-288.46 161.096-.718 292.305 127.598 288.459 288.46" fill="#778f9d"/><path d="M1222.441 684.23c-2.822 149.963-121.626 271.662-271.661 271.662-150.036 0-271.663-121.627-271.663-271.661 0-150.036 121.63-271.136 271.663-271.663 151.373-.54 274.547 120.464 271.661 271.663" fill="#87a2ab"/><path d="M1205.645 684.23c-1.882 140.711-114.108 254.866-254.865 254.866-140.759 0-254.865-114.108-254.865-254.865 0-140.759 114.108-254.515 254.865-254.866 141.65-.36 256.788 113.331 254.865 254.866" fill="#98b8bb"/><path d="M1188.848 684.23C1187.907 815.689 1082.261 922.3 950.78 922.3S712.71 815.712 712.71 684.23c0-131.483 106.589-237.894 238.07-238.07 131.927-.18 239.03 106.2 238.068 238.07" fill="#abcfcc"/><path d="M1172.05 684.23c0 122.205-99.066 221.271-221.27 221.271-122.205 0-221.272-99.066-221.272-221.27 0-122.206 99.067-221.272 221.272-221.272 122.204 0 221.27 99.066 221.27 221.272" fill="#bfe9de"/><path d="M1287.73 674.039c0 178.258-152.866 322.765-341.437 322.765-188.57 0-341.437-144.507-341.437-322.765 0-178.259 152.867-322.767 341.437-322.767 188.571 0 341.436 144.508 341.436 322.767" fill="#e4e4f5"/><path d="M1197.043 720.279c24.601-90.51-10.376-193.052-86.275-252.928-75.897-59.876-188.879-74.059-278.677-34.983-89.799 39.076-151.874 129.435-153.112 222.879-1.066 80.31 39.725 157.492 97.661 216.24 53.379 54.129 128.612 96.529 206.315 87.536-59.412-16.187-108.468-62.792-125.292-119.036 53.006 47.104 136.356 58.266 203.748 32.361 67.392-25.904 117.526-85.46 135.632-152.07" fill="#2d4ea8"/><path d="M823.267 546.261v12.74l-11.944 2.17v58.84c0 10.182-3.508 18.252-10.528 24.21-7.016 5.96-15.884 8.938-26.603 8.938-11.637 0-20.853-2.678-27.64-8.032-6.79-5.356-10.056-13.247-9.8-23.667l.152-.433h21.745c0 5.548 1.403 9.588 4.211 12.121 2.805 2.532 6.584 3.799 11.332 3.799 4.132 0 7.643-1.506 10.528-4.522 2.881-3.016 4.323-7.153 4.323-12.414v-58.84L777.1 559v-12.74h46.167M909.243 598.008c0-10.904-2.399-19.757-7.196-26.561-4.799-6.803-11.894-10.204-21.286-10.204-9.392 0-16.397 3.378-21.014 10.132-4.622 6.757-6.928 15.632-6.928 26.633v1.739c0 11.1 2.333 20.036 7.004 26.816 4.672 6.777 11.676 10.166 21.014 10.166 9.446 0 16.538-3.389 21.286-10.166 4.746-6.78 7.12-15.716 7.12-26.816zm22.278 1.739c0 15.44-4.67 28.201-14.009 38.288-9.341 10.082-21.567 15.124-36.675 15.124-15.057 0-27.216-5.042-36.48-15.124-9.262-10.087-13.894-22.848-13.894-38.288v-1.595c0-15.341 4.617-28.079 13.856-38.212 9.238-10.132 21.385-15.199 36.442-15.199 15.107 0 27.346 5.067 36.714 15.2 9.364 10.132 14.046 22.87 14.046 38.211v1.595M940.404 559v-12.739h46.167v12.74l-11.946 2.17v75.63l11.946 2.174v12.664h-46.167v-12.664l11.944-2.174v-75.63L940.404 559M1108.99 546.261v12.74l-11.943 2.17v90.468h-22.28l-45.016-70.928-.459.072V636.8l11.943 2.174v12.664h-46.167v-12.664l11.867-2.174v-75.63L995.068 559v-12.74H1029.292l45.015 70.928.46-.072v-55.946l-11.944-2.17v-12.74h46.166M906.42 677.843v12.737l-11.944 2.172v55.005c0 6.947 1.979 12.147 5.933 15.595 3.956 3.452 9.38 5.175 16.271 5.175 6.992 0 12.479-1.711 16.46-5.139 3.983-3.425 5.972-8.636 5.972-15.63v-55.006l-11.867-2.172v-12.737h46.167v12.737l-11.943 2.172v55.005c0 11.822-4.124 20.939-12.365 27.358-8.243 6.416-19.053 9.624-32.424 9.624-13.321 0-24.079-3.208-32.27-9.624-8.193-6.419-12.287-15.536-12.287-27.358v-55.005l-11.867-2.172v-12.737h46.164M1064.67 711.496h-16.766l-2.908-14.473c-1.943-1.16-4.773-2.172-8.5-3.04-3.725-.868-7.681-1.303-11.867-1.303-6.125 0-10.86 1.219-14.201 3.653-3.343 2.438-5.015 5.587-5.015 9.446 0 3.572 1.748 6.502 5.244 8.794 3.498 2.292 9.534 4.716 18.107 7.274 12.3 3.232 21.63 7.502 27.984 12.809 6.355 5.308 9.53 12.28 9.53 20.916 0 9.023-3.777 16.14-11.331 21.35-7.552 5.213-17.506 7.817-29.859 7.817-8.83 0-16.803-1.328-23.925-3.979-7.119-2.655-13.052-6.321-17.8-11.001v-22.002h17.302l2.376 14.979c2.246 1.74 5.295 3.175 9.147 4.308 3.853 1.135 8.156 1.7 12.9 1.7 6.125 0 10.784-1.18 13.975-3.545 3.188-2.366 4.785-5.526 4.785-9.482 0-4.054-1.521-7.309-4.556-9.772-3.037-2.458-8.359-4.776-15.964-6.946-13.22-3.62-23.224-7.912-30.01-12.882-6.791-4.969-10.185-11.772-10.185-20.41 0-8.539 3.83-15.526 11.484-20.954 7.656-5.428 17.278-8.213 28.864-8.357 8.576 0 16.386 1.23 23.428 3.692 7.043 2.459 12.964 5.743 17.762 9.84v21.568M1102.261 783.219h-22.353v-18.527h22.353zm0-36.33h-22.353v-69.046h22.353v69.046" fill="#fff"/><path d="M331.784 148.332h-.995.995" fill="#f89bd2"/><path d="M331.784 148.999h-.995v-1.334h.995V149" fill="#fcd599"/><path d="M1463.64 923.863l-.293-.044c-11.267-1.624-21.72 6.189-23.347 17.456l-1.947 13.409c-.8 5.512-8.16 6.83-10.826 1.94l-46.36-85.164c-3.334-6.107-10.974-8.361-17.08-5.037l-.227.122c-6.107 3.324-8.36 10.97-5.027 17.075l36.027 66.176a3.518 3.518 0 01-1.413 4.773l-.054.034c-1.706.929-3.853.298-4.773-1.408l-54.973-100.967c-3.331-6.107-10.975-8.361-17.082-5.037l-.222.121c-6.107 3.325-8.362 10.97-5.038 17.077l54.982 100.967a3.528 3.528 0 01-1.414 4.772l-.693.377a3.52 3.52 0 01-4.773-1.406l-49.36-90.66c-3.326-6.106-10.97-8.36-17.076-5.036l-.224.121c-6.106 3.325-8.36 10.97-5.036 17.076l49.362 90.66a3.516 3.516 0 01-1.413 4.772l-1.947 1.06c-1.704.93-3.84.3-4.769-1.407l-39.773-73.048c-3.324-6.106-10.97-8.361-17.076-5.037l-.223.121c-6.107 3.326-8.361 10.971-5.036 17.076l70.797 130.04a141.526 141.526 0 0048.934 52.11l.466.298c1.027.642 2.08 1.183 3.147 1.698l45.373 83.317 81.374-44.31-48.374-88.857a45.548 45.548 0 00-.066-10.081l-2.6-21.947-.054-.108a36.29 36.29 0 01-4.053-22.541l10.133-69.897c.747-5.144-2.826-9.915-7.973-10.656" fill="#dec9b6"/><path d="M1620.613 1339.667l-85.293 46.44-123.627-227.802 85.294-46.436 123.626 227.798" fill="#c7c3ca"/><path d="M1552.307 1376.853l-4.867 2.654-123.627-227.798 4.867-2.652 123.627 227.796M1571.48 1366.414l-4.867 2.653-123.626-227.798 4.866-2.652 123.627 227.797M1590.653 1355.973l-4.866 2.654-123.627-227.798 4.867-2.652 123.626 227.796M1609.827 1345.533l-4.867 2.653-123.627-227.797 4.867-2.65 123.627 227.794" fill="#fff"/><path d="M1518.147 1133.015l-100.174 54.544-22.76-41.808 100.174-54.544 22.76 41.808" fill="#acaab0"/><path d="M1671.48 804.861l-.293.043c-11.267 1.625-19.094 12.073-17.467 23.343l1.92 13.412c.8 5.512-5.893 8.856-9.827 4.917l-68.546-68.592c-4.907-4.919-12.88-4.921-17.8-.007l-.174.18c-4.92 4.915-4.933 12.886-.013 17.803l53.267 53.299a3.508 3.508 0 01-.014 4.976l-.04.049a3.514 3.514 0 01-4.973-.001l-81.267-81.32c-4.92-4.919-12.893-4.922-17.8-.007l-.186.18c-4.92 4.915-4.92 12.885 0 17.803l81.253 81.321a3.518 3.518 0 010 4.975l-.56.557a3.515 3.515 0 01-4.973-.001l-72.96-73.018c-4.92-4.918-12.894-4.921-17.8-.006l-.187.18c-4.92 4.913-4.92 12.885 0 17.802l72.96 73.018a3.52 3.52 0 010 4.976l-1.573 1.568a3.515 3.515 0 01-4.974-.002l-58.786-58.833c-4.92-4.919-12.894-4.921-17.814-.007l-.173.18c-4.92 4.914-4.92 12.884-.013 17.803l104.666 104.735a141.544 141.544 0 0061.654 36.164l.533.152c1.16.326 2.333.546 3.507.738l67.053 67.104 65.547-65.498-71.52-71.567c-.6-3.27-1.56-6.51-2.907-9.653l-8.693-20.318-.08-.085a36.27 36.27 0 01-10.254-20.481l-10.04-69.911c-.733-5.144-5.506-8.713-10.653-7.97" fill="#f9ad38"/><path d="M1994.92 1195.219l-81.827 81.773-230.906-226.859 81.84-81.773 230.893 226.859" fill="#dec9b6"/><path d="M1920.453 1269.643l-7.36 7.35-230.906-226.86 7.36-7.349 230.906 226.859M1939.32 1250.781l-7.347 7.35-230.906-226.859 7.346-7.35 230.907 226.86M1958.2 1231.92l-7.36 7.35-230.907-226.86 7.36-7.349L1958.2 1231.92M1977.067 1213.057l-7.347 7.35-230.907-226.858 7.36-7.35 230.894 226.858M1995.947 1194.196l-7.36 7.35-230.894-226.858 7.347-7.35 230.907 226.858" fill="#ee2d21"/><path d="M1787.587 985.373l-88.4 88.339-33.654-33.672 88.4-88.339 33.654 33.672" fill="#ee2660"/><path d="M897.856 236.93l.277.12c10.447 4.526 22.584-.27 27.115-10.714l5.395-12.43c2.216-5.109 9.662-4.45 10.948.969l22.392 94.348c1.605 6.765 8.39 10.948 15.154 9.342l.248-.058c6.766-1.606 10.947-8.39 9.342-15.156l-17.399-73.312a3.518 3.518 0 012.61-4.236l.07-.016c1.89-.45 3.787.72 4.235 2.61l26.548 111.856c1.605 6.766 8.39 10.948 15.154 9.342l.248-.059c6.764-1.605 10.947-8.39 9.342-15.155l-26.547-111.857a3.516 3.516 0 012.61-4.235l.767-.182c1.891-.45 3.787.72 4.236 2.61l23.836 100.436c1.606 6.766 8.391 10.948 15.156 9.342l.247-.059c6.765-1.605 10.948-8.39 9.341-15.155l-23.836-100.437a3.518 3.518 0 012.611-4.235l2.159-.512c1.89-.449 3.786.72 4.236 2.611l19.206 80.925c1.606 6.766 8.391 10.948 15.155 9.343l.248-.059c6.764-1.605 10.947-8.392 9.341-15.156l-34.19-144.064a141.535 141.535 0 00-33.531-63.122l-.38-.414c-.815-.885-1.696-1.686-2.592-2.464l-21.907-92.302-90.157 21.398 23.363 98.44a45.115 45.115 0 00-2.588 9.743l-3.248 21.861.028.118a36.278 36.278 0 01-2.018 22.813l-28.114 64.79c-2.068 4.766.121 10.307 4.889 12.373" fill="#f8c27c"/><path d="M867.087-109.747l112.56-26.706 37.72 158.93-112.56 26.714-37.72-158.938" fill="#dec9b6"/><path d="M969.53-134.053l10.117-2.4 37.72 158.93-10.118 2.4-37.72-158.93M943.567-127.893l10.117-2.4 37.72 158.932-10.117 2.4-37.72-158.932M917.605-121.733l10.116-2.4L965.441 34.8l-10.116 2.401-37.72-158.934M891.643-115.573l10.116-2.4 37.72 158.934-10.116 2.402-37.72-158.936M865.68-109.413l10.116-2.4 37.72 158.936-10.116 2.401-37.72-158.937" fill="#c4a786"/><path d="M893.663 22.345L1015.26-6.512l10.992 46.316-121.597 28.859-10.992-46.318" fill="#ae8258"/><path d="M674.452 218.736l.299.052c11.209 1.984 21.906-5.492 23.897-16.7l2.37-13.341c.973-5.484 8.369-6.567 10.874-1.594l43.627 86.602c3.128 6.21 10.697 8.708 16.906 5.58l.227-.115c6.21-3.128 8.708-10.697 5.58-16.907l-33.9-67.292a3.519 3.519 0 011.559-4.725l.064-.032a3.519 3.519 0 014.725 1.559l51.721 102.672c3.128 6.21 10.698 8.706 16.907 5.578l.227-.113c6.209-3.128 8.708-10.697 5.58-16.907l-51.723-102.672a3.519 3.519 0 011.559-4.725l.705-.355a3.518 3.518 0 014.724 1.56l46.441 92.188c3.128 6.211 10.698 8.708 16.907 5.58l.227-.114c6.209-3.128 8.708-10.698 5.58-16.907l-46.442-92.19a3.517 3.517 0 011.559-4.723l1.981-.999a3.519 3.519 0 014.726 1.559l37.42 74.281c3.128 6.21 10.697 8.707 16.906 5.58l.227-.115c6.21-3.128 8.707-10.697 5.579-16.906L804.876 91.86a141.543 141.543 0 00-47.233-53.645l-.466-.314c-.997-.673-2.04-1.248-3.092-1.796L650.484-169.547l-82.755 41.694 106.439 211.28a45.274 45.274 0 00-.261 10.078l1.901 22.02.055.108a36.264 36.264 0 013.318 22.66l-12.35 69.538c-.908 5.116 2.504 10 7.621 10.905" fill="#fcd599"/><path d="M1104.923 166.721l.214.215c8.059 8.041 21.108 8.033 29.155-.019l9.579-9.585c3.937-3.939 10.621-.595 9.829 4.919l-13.785 95.984c-.988 6.882 3.789 13.262 10.67 14.25l.252.036c6.882.99 13.263-3.789 14.251-10.67l10.712-74.584a3.52 3.52 0 013.983-2.983l.07.01a3.519 3.519 0 012.983 3.983l-16.345 113.796c-.988 6.883 3.789 13.262 10.672 14.251l.25.036c6.883.988 13.263-3.79 14.251-10.67l16.345-113.798a3.518 3.518 0 013.983-2.981l.78.112a3.518 3.518 0 012.983 3.982l-14.676 102.178c-.988 6.882 3.789 13.262 10.67 14.25l.252.036c6.883.99 13.263-3.789 14.251-10.67l14.676-102.179a3.518 3.518 0 013.983-2.981l2.196.314a3.52 3.52 0 012.982 3.983l-11.825 82.33c-.988 6.882 3.79 13.262 10.67 14.25l.253.037c6.882.988 13.262-3.789 14.25-10.672l21.051-146.56a141.523 141.523 0 00-8.033-71.024l-.202-.524c-.433-1.122-.958-2.19-1.506-3.242l34.081-237.29-91.723-13.174L1182.128 55.6a45.173 45.173 0 00-5.983 8.115l-11.042 19.145-.018.12a36.267 36.267 0 01-10.245 20.481l-49.925 49.956a9.405 9.405 0 00.008 13.304" fill="#f9ad38"/><path d="M1678.653 601.608l-.16.26c-5.866 9.759-2.706 22.421 7.054 28.29l11.6 6.986c4.773 2.872 3.146 10.165-2.4 10.725l-96.48 9.755c-6.92.699-11.96 6.873-11.254 13.79l.027.254c.693 6.917 6.867 11.957 13.787 11.259l74.973-7.58a3.52 3.52 0 013.853 3.146v.071a3.516 3.516 0 01-3.146 3.855l-114.374 11.564c-6.92.698-11.96 6.873-11.266 13.79l.026.254c.707 6.917 6.88 11.957 13.8 11.258l114.374-11.564a3.52 3.52 0 013.853 3.147l.08.784a3.516 3.516 0 01-3.147 3.855l-102.706 10.382c-6.907.7-11.947 6.875-11.254 13.792l.027.254c.693 6.916 6.867 11.957 13.787 11.257l102.706-10.383a3.52 3.52 0 013.854 3.147l.226 2.207a3.524 3.524 0 01-3.146 3.854l-82.76 8.367c-6.907.7-11.947 6.873-11.254 13.79l.027.254c.693 6.917 6.867 11.957 13.787 11.259l147.32-14.894a141.5 141.5 0 0066.986-24.913l.467-.323c.987-.69 1.893-1.457 2.787-2.244l238.506-24.113-9.32-92.193-244.786 24.748a45.178 45.178 0 00-9.32-3.85l-21.24-6.102-.12.012c-7.8.788-15.64-.97-22.347-5.008l-60.52-36.414c-4.453-2.678-10.227-1.24-12.907 3.215" fill="#b8946f"/><path d="M1682.773 740.125a4.184 4.184 0 014.16 3.764l.214 2.206a4.181 4.181 0 01-3.734 4.586l-82.76 8.366a11.84 11.84 0 00-8.026 4.322 11.845 11.845 0 00-2.627 8.738l.027.254a11.888 11.888 0 0013.053 10.663l147.32-14.893a141.23 141.23 0 0066.68-24.796l.453-.323c1.014-.71 1.947-1.51 2.72-2.199l.174-.141.213-.021 237.84-24.048-9.187-90.866-244.333 24.703-.173-.101c-2.92-1.604-6-2.88-9.187-3.792l-21.12-6.07a36.936 36.936 0 01-22.747-5.1l-60.52-36.413a8.697 8.697 0 00-4.493-1.252c-3.093 0-5.907 1.585-7.493 4.239l-.16.261c-5.667 9.425-2.6 21.707 6.813 27.376l11.613 6.985c2.427 1.46 3.587 4.186 2.974 6.947-.614 2.761-2.84 4.728-5.654 5.013l-96.48 9.754c-6.533.661-11.32 6.52-10.653 13.061l.027.255a11.889 11.889 0 0013.053 10.66l74.973-7.578a4.158 4.158 0 014.574 3.742c.24 2.365-1.44 4.422-3.734 4.656L1562.2 694.645a11.842 11.842 0 00-8.04 4.324 11.84 11.84 0 00-2.627 8.736l.027.256a11.894 11.894 0 0013.053 10.662L1679 707.059a4.17 4.17 0 014.587 3.742l.08.783a4.198 4.198 0 01-3.747 4.585l-102.707 10.383c-6.533.663-11.32 6.523-10.653 13.063l.027.253a11.895 11.895 0 0013.053 10.663l102.707-10.384c.146-.015.28-.022.426-.022zm-80.906 44.292c-6.827 0-12.48-5.125-13.174-11.921l-.026-.253a13.15 13.15 0 012.92-9.718 13.176 13.176 0 018.933-4.804l82.76-8.365a2.858 2.858 0 002.547-3.127l-.227-2.205a2.861 2.861 0 00-3.12-2.552l-102.707 10.384c-7.386.773-13.786-4.613-14.52-11.855l-.026-.254c-.734-7.271 4.586-13.784 11.853-14.52l102.707-10.383a2.855 2.855 0 002.546-3.125l-.08-.784c-.146-1.559-1.546-2.707-3.12-2.551l-114.373 11.564c-7.373.77-13.8-4.612-14.533-11.856l-.027-.253a13.209 13.209 0 012.933-9.714c2.24-2.742 5.4-4.449 8.934-4.805l114.373-11.564a2.856 2.856 0 002.547-3.125c-.16-1.632-1.56-2.768-3.12-2.62l-74.974 7.577c-7.386.77-13.786-4.612-14.52-11.853l-.026-.256c-.734-7.27 4.586-13.783 11.853-14.518l96.48-9.754c2.707-.275 4.093-2.235 4.48-3.979.4-1.743-.013-4.107-2.347-5.512l-11.613-6.987c-10.053-6.046-13.32-19.149-7.28-29.204l.16-.26a10 10 0 018.64-4.886c1.827 0 3.613.498 5.187 1.444l60.52 36.413a35.728 35.728 0 0021.933 4.915l.12-.014.253.024 21.24 6.104a45.785 45.785 0 019.267 3.806l245.24-24.795.067.664 9.4 92.856-.667.065-238.293 24.095c-.787.68-1.694 1.45-2.694 2.147l-.453.322a142.52 142.52 0 01-67.307 25.031l-147.32 14.893c-.453.047-.906.068-1.346.068M1033.077 1123.07l-.24-.185c-8.992-6.982-21.94-5.358-28.928 3.628l-8.318 10.696c-3.419 4.396-10.466 1.906-10.363-3.662l1.796-96.954c.13-6.952-5.401-12.69-12.353-12.82l-.254-.004c-6.952-.129-12.69 5.402-12.82 12.354l-1.396 75.336a3.518 3.518 0 01-3.582 3.452l-.071-.002a3.519 3.519 0 01-3.453-3.582l2.13-114.944c.128-6.952-5.402-12.691-12.353-12.82l-.255-.004c-6.952-.13-12.69 5.402-12.82 12.353l-2.129 114.944a3.518 3.518 0 01-3.583 3.452l-.789-.015a3.518 3.518 0 01-3.452-3.582l1.912-103.208c.13-6.952-5.401-12.691-12.353-12.82l-.254-.004c-6.952-.13-12.692 5.401-12.82 12.353l-1.912 103.208a3.518 3.518 0 01-3.584 3.452l-2.217-.041a3.519 3.519 0 01-3.453-3.583l1.541-83.16c.13-6.95-5.401-12.69-12.353-12.819l-.255-.005c-6.95-.13-12.69 5.403-12.82 12.353l-2.743 148.04a141.548 141.548 0 0016.764 69.483l.266.493c.569 1.062 1.222 2.056 1.897 3.033l-4.441 239.687 92.646 1.72 4.559-245.997a45.187 45.187 0 004.93-8.793l8.589-20.364.001-.123a36.269 36.269 0 017.632-21.592l43.356-55.753a9.403 9.403 0 00-1.655-13.2" fill="#f9ad38"/><path d="M929.797 995.912l-2.129 114.944a3.518 3.518 0 01-3.583 3.452l-.788-.015a3.518 3.518 0 01-3.453-3.582l1.912-103.208c.13-6.952-5.401-12.691-12.353-12.82l-.254-.004c-6.952-.13-12.692 5.401-12.82 12.353l-1.912 103.208a3.518 3.518 0 01-3.582 3.452l-2.219-.041a3.519 3.519 0 01-3.453-3.583l1.541-83.16c.13-6.95-5.401-12.69-12.353-12.819l-.255-.005c-6.95-.13-12.69 5.403-12.82 12.353l-2.743 148.04a141.548 141.548 0 0016.764 69.483l.266.493c.568 1.062 1.222 2.056 1.897 3.033l-4.441 239.687 62.745 1.16 5.383-504.709c-6.272.612-11.23 5.835-11.35 12.288" fill="#fabc5a"/><path d="M1484.107 479.896l-.067.293c-2.893 11.012 3.693 22.28 14.707 25.174l13.106 3.445c5.374 1.415 5.854 8.875.694 10.968l-89.854 36.456c-6.44 2.615-9.546 9.956-6.933 16.399l.093.234c2.614 6.443 9.96 9.547 16.4 6.934l69.827-28.328c1.8-.73 3.853.137 4.587 1.937l.026.065a3.53 3.53 0 01-1.946 4.583l-106.52 43.221c-6.454 2.615-9.547 9.956-6.934 16.4l.094.234c2.613 6.442 9.946 9.546 16.4 6.933l106.52-43.221c1.8-.73 3.853.136 4.586 1.937l.294.73a3.514 3.514 0 01-1.934 4.583l-95.653 38.808c-6.44 2.615-9.547 9.956-6.933 16.399l.093.235c2.613 6.442 9.96 9.546 16.4 6.933l95.653-38.81c1.8-.729 3.854.138 4.587 1.94l.827 2.055a3.514 3.514 0 01-1.934 4.583l-77.066 31.27c-6.454 2.613-9.547 9.955-6.934 16.397l.094.236c2.613 6.442 9.96 9.546 16.4 6.932l137.2-55.666a141.585 141.585 0 0057.306-42.725l.347-.437a31.57 31.57 0 002.04-2.936l263.627-116.555-34.827-85.865L1619 490.593a45.239 45.239 0 00-10.027-1.078l-22.093.108-.12.045a36.26 36.26 0 01-22.853 1.47l-68.307-17.953c-5.027-1.32-10.173 1.684-11.493 6.711" fill="#c4a786"/><path d="M1390.787 616.104c.133.527.293 1.052.506 1.572l.094.235c2.613 6.442 9.946 9.546 16.4 6.933l106.52-43.221c1.8-.73 3.853.136 4.586 1.937l.294.73a3.514 3.514 0 01-1.934 4.583l-95.653 38.808c-6.44 2.615-9.547 9.956-6.933 16.399l.093.235c2.613 6.442 9.96 9.546 16.4 6.933l95.653-38.81c1.8-.729 3.854.138 4.587 1.94l.827 2.055a3.514 3.514 0 01-1.934 4.583l-77.066 31.27c-6.454 2.613-9.547 9.955-6.934 16.397l.094.236c2.613 6.442 9.96 9.546 16.4 6.932l137.2-55.666a141.585 141.585 0 0057.306-42.725l.347-.437a31.57 31.57 0 002.04-2.936l263.627-116.555-19.187-47.312-513.333 205.884" fill="#b48963"/><path d="M1679.333 462.859l36.774 90.662-36.707 14.896-36.787-90.662 36.72-14.896" fill="#282628"/><path d="M1666.253 487.477c15.694-6.369 33.587 1.194 39.947 16.891 6.373 15.699-1.187 33.587-16.893 39.956-15.694 6.37-33.574-1.193-39.947-16.892-6.373-15.697 1.187-33.587 16.893-39.955" fill="#72727e"/><path d="M1669.56 495.621c11.2-4.544 23.96.851 28.507 12.051 4.533 11.201-.854 23.964-12.054 28.508-11.2 4.544-23.973-.852-28.506-12.052-4.547-11.2.853-23.963 12.053-28.507" fill="#fff"/><path d="M314.563 924.253l-.063-.296c-2.36-11.137-13.299-18.254-24.436-15.901l-13.257 2.8c-5.45 1.15-9.224-5.301-5.551-9.487l63.953-72.89c4.587-5.226 4.067-13.18-1.158-17.766l-.192-.166c-5.226-4.586-13.18-4.067-17.766 1.16L266.4 868.344a3.517 3.517 0 01-4.966.324l-.053-.047a3.518 3.518 0 01-.324-4.964l75.823-86.416c4.585-5.226 4.065-13.18-1.16-17.765l-.192-.168c-5.226-4.585-13.18-4.065-17.766 1.16l-75.821 86.416a3.52 3.52 0 01-4.965.324l-.594-.52a3.52 3.52 0 01-.324-4.965l68.082-77.592c4.585-5.227 4.065-13.18-1.16-17.766l-.191-.168c-5.227-4.585-13.18-4.066-17.765 1.16l-68.082 77.594a3.52 3.52 0 01-4.965.324l-1.668-1.464a3.52 3.52 0 01-.324-4.966l54.856-62.52c4.585-5.226 4.067-13.18-1.16-17.765l-.19-.168c-5.227-4.585-13.18-4.065-17.766 1.16l-97.653 111.299a141.524 141.524 0 00-32.047 63.889l-.117.548c-.25 1.177-.393 2.359-.508 3.54l-210.44 233.953 69.653 61.115 214.6-238.695a45.198 45.198 0 009.441-3.533l19.704-10.01.08-.093a36.276 36.276 0 0119.767-11.564l69.103-14.597c5.084-1.073 8.333-6.067 7.256-11.15" fill="#c4a786"/><path d="M147.732 1027.05l-73.544-64.527 26.132-29.783 73.544 64.53-26.132 29.78" fill="#282628"/><path d="M148.379 999.181c-11.174 12.735-30.554 14-43.287 2.827-12.734-11.172-14-30.553-2.827-43.287 11.173-12.734 30.553-14 43.287-2.826 12.735 11.173 14 30.553 2.827 43.286" fill="#72727e"/><path d="M141.772 993.385c-7.97 9.086-21.799 9.988-30.884 2.018-9.085-7.972-9.988-21.8-2.017-30.886 7.972-9.085 21.8-9.988 30.885-2.016 9.085 7.971 9.988 21.799 2.016 30.884" fill="#fff"/><path d="M1385.16 257.947l.12.281c4.213 10.573 16.2 15.728 26.773 11.517l12.6-5.013c5.174-2.06 9.987 3.656 7.08 8.405l-50.64 82.7c-3.626 5.93-1.76 13.68 4.16 17.31l.214.132c5.933 3.63 13.68 1.766 17.32-4.163l39.346-64.26a3.506 3.506 0 014.827-1.163l.067.036a3.523 3.523 0 011.16 4.84l-60.027 98.043c-3.627 5.93-1.773 13.68 4.16 17.31l.213.133c5.934 3.63 13.68 1.766 17.32-4.163l60.027-98.045a3.52 3.52 0 014.84-1.163l.667.412a3.498 3.498 0 011.16 4.837l-53.894 88.035c-3.64 5.93-1.773 13.68 4.16 17.31l.214.133c5.933 3.63 13.68 1.766 17.306-4.163l53.907-88.035a3.521 3.521 0 014.84-1.162l1.893 1.157a3.523 3.523 0 011.16 4.839l-43.426 70.933c-3.64 5.93-1.774 13.679 4.16 17.31l.213.133c5.933 3.63 13.68 1.766 17.307-4.163l77.32-126.276a141.368 141.368 0 0020.72-68.405l.026-.562a31.89 31.89 0 00-.106-3.574L1757.36-27.053l-125.333-2.08-132 215.57a44.887 44.887 0 00-8.694 5.084l-17.72 13.214-.066.104a36.32 36.32 0 01-17.507 14.757l-65.627 26.128c-4.826 1.923-7.173 7.396-5.253 12.223" fill="#f8c27c"/><path d="M1614.733 177.97l.04.051a3.205 3.205 0 01-.573 4.484l-7.213 5.56c-1.4 1.08-3.414.82-4.48-.578l-.04-.05a3.193 3.193 0 01.573-4.485l7.213-5.56c1.4-1.079 3.4-.82 4.48.579" fill="#f03f21"/><path d="M1606.24 172.768l.04.05a3.195 3.195 0 01-.587 4.485l-7.2 5.561a3.21 3.21 0 01-4.493-.579l-.04-.052a3.205 3.205 0 01.587-4.482l7.2-5.562a3.207 3.207 0 014.493.58" fill="#ee2660"/><path d="M1597.467 167.396l.04.05a3.195 3.195 0 01-.587 4.485l-7.2 5.561a3.208 3.208 0 01-4.493-.579l-.04-.052a3.206 3.206 0 01.586-4.482l7.2-5.562a3.208 3.208 0 014.494.58" fill="#f03f21"/><path d="M1588.973 162.193l.027.052a3.191 3.191 0 01-.573 4.483l-7.214 5.561c-1.386 1.08-3.4.82-4.48-.578l-.04-.05a3.195 3.195 0 01.587-4.485l7.2-5.561a3.208 3.208 0 014.493.578" fill="#ee2660"/><path d="M1580.2 156.823l.027.05a3.193 3.193 0 01-.574 4.484l-7.213 5.56a3.193 3.193 0 01-4.48-.578l-.04-.05a3.195 3.195 0 01.587-4.485l7.2-5.56a3.207 3.207 0 014.493.579" fill="#f03f21"/><path d="M1571.693 151.62l.04.05a3.193 3.193 0 01-.573 4.485l-7.213 5.56c-1.4 1.078-3.4.82-4.48-.579l-.04-.05a3.193 3.193 0 01.573-4.485l7.213-5.56c1.4-1.078 3.4-.82 4.48.58" fill="#ee2660"/><path d="M1562.92 146.248l.04.05a3.193 3.193 0 01-.573 4.485l-7.214 5.561a3.194 3.194 0 01-4.48-.579l-.04-.052a3.203 3.203 0 01.574-4.482l7.213-5.562c1.4-1.078 3.4-.82 4.48.58" fill="#f03f21"/><path d="M1554.427 141.045l.04.051a3.205 3.205 0 01-.574 4.484l-7.213 5.561a3.193 3.193 0 01-4.48-.578l-.04-.052a3.191 3.191 0 01.573-4.483l7.214-5.561a3.193 3.193 0 014.48.578" fill="#ee2660"/><path d="M1545.653 135.673l.04.052a3.203 3.203 0 01-.573 4.483l-7.213 5.561c-1.4 1.08-3.4.82-4.48-.578l-.04-.05a3.193 3.193 0 01.573-4.485l7.213-5.561a3.194 3.194 0 014.48.578" fill="#f03f21"/><path d="M1537.16 130.472l.04.05a3.195 3.195 0 01-.587 4.485l-7.2 5.56a3.207 3.207 0 01-4.493-.579l-.04-.05a3.207 3.207 0 01.587-4.485l7.213-5.56a3.193 3.193 0 014.48.58" fill="#ee2660"/><path d="M289.217 476.232l.288-.096c10.794-3.617 16.615-15.297 13.006-26.093l-4.298-12.85c-1.765-5.282 4.212-9.769 8.791-6.598l79.72 55.206c5.716 3.96 13.557 2.534 17.516-3.182l.145-.208c3.958-5.716 2.534-13.559-3.182-17.518l-61.946-42.897a3.519 3.519 0 01-.889-4.896l.04-.059a3.52 3.52 0 014.896-.889l94.513 65.452c5.716 3.959 13.558 2.533 17.516-3.183l.146-.208c3.957-5.716 2.533-13.558-3.183-17.517l-94.513-65.45a3.519 3.519 0 01-.89-4.897l.45-.648a3.517 3.517 0 014.894-.889l84.864 58.77c5.716 3.958 13.558 2.533 17.516-3.183l.146-.21c3.957-5.716 2.533-13.557-3.183-17.516l-84.864-58.769a3.52 3.52 0 01-.89-4.896l1.265-1.824a3.518 3.518 0 014.894-.89l68.379 47.354c5.716 3.959 13.559 2.533 17.517-3.181l.144-.21c3.959-5.716 2.534-13.558-3.182-17.517l-121.726-84.297a141.53 141.53 0 00-67.133-24.536l-.557-.054c-1.199-.114-2.39-.12-3.576-.1l-132.939-92.062-52.756 76.178 138.125 95.654a45.174 45.174 0 004.588 8.977l12.198 18.43.1.07a36.272 36.272 0 0113.748 18.316l22.396 66.981c1.648 4.93 6.98 7.587 11.906 5.935" fill="#fcd599"/><path d="M-79.164 144.11l55.286-79.833L146.428 185.49l-55.286 79.834L-79.164 144.11" fill="#f89bd2"/><path d="M70.184 261.12l64.939-93.772 39.134 27.101-64.938 93.772-39.135-27.1" fill="#ee2660"/><path d="M371.328 395.107l14.479-20.908 7.977 5.525-14.479 20.907-7.977-5.524" fill="#f57a14"/><path d="M198.827 343.104l56.788-82.003 12.297 8.518-56.788 82.002-12.297-8.517" fill="#f78d11"/><path d="M222.41 322.185c-9.435-6.322-11.665-19.28-5.198-28.617 6.467-9.337 19.279-11.665 28.617-5.199 9.338 6.467 11.46 19.14 5.199 28.616-5.77 8.736-19.143 11.548-28.617 5.2" fill="#f03f21"/><path d="M225.767 317.34c-6.663-4.613-8.324-13.755-3.71-20.417 4.614-6.663 13.755-8.323 20.418-3.71 6.661 4.614 8.322 13.755 3.709 20.418-4.615 6.662-13.756 8.322-20.417 3.71" fill="#f9da1a"/><path d="M92.6 269.787c-4.452-3.083-5.562-9.19-2.48-13.642 3.084-4.452 9.191-5.56 13.643-2.478 4.452 3.082 5.561 9.19 2.478 13.641-3.083 4.452-9.19 5.561-13.642 2.479" fill="#fff"/><path d="M501.173 1185.5l-.064-.297c-2.374-11.134-13.322-18.236-24.457-15.868l-13.253 2.817c-5.448 1.159-9.232-5.288-5.564-9.479l63.856-72.976c4.578-5.233 4.048-13.185-1.184-17.764l-.192-.168c-5.232-4.577-13.186-4.048-17.764 1.184l-49.618 56.707a3.52 3.52 0 01-4.965.33l-.053-.046a3.52 3.52 0 01-.331-4.965l75.705-86.518c4.579-5.233 4.048-13.186-1.184-17.764l-.192-.168c-5.232-4.578-13.185-4.048-17.764 1.184l-75.704 86.519a3.518 3.518 0 01-4.965.33l-.593-.518a3.52 3.52 0 01-.331-4.965l67.976-77.684c4.579-5.234 4.048-13.186-1.184-17.764l-.192-.168c-5.232-4.578-13.185-4.048-17.764 1.184l-67.975 77.685a3.518 3.518 0 01-4.965.33l-1.67-1.46a3.517 3.517 0 01-.33-4.965l54.77-62.594c4.58-5.232 4.049-13.186-1.183-17.764l-.191-.167c-5.233-4.579-13.185-4.048-17.764 1.184l-97.503 111.43a141.534 141.534 0 00-31.96 63.933l-.116.548c-.249 1.177-.39 2.36-.502 3.54L195.517 1302.04l69.736 61.014 110.638-126.437a45.14 45.14 0 009.437-3.546l19.69-10.037.08-.092a36.263 36.263 0 0119.751-11.59l69.083-14.691c5.083-1.081 8.325-6.079 7.241-11.16" fill="#fcd599"/><path d="M522.105 1020.693l-.192-.168c-5.232-4.578-13.185-4.048-17.764 1.184l-75.704 86.519a3.518 3.518 0 01-4.965.33l-.593-.518a3.518 3.518 0 01-.331-4.965l67.976-77.686c4.579-5.232 4.048-13.184-1.184-17.762l-.192-.168c-5.232-4.578-13.185-4.048-17.764 1.184l-67.975 77.685a3.518 3.518 0 01-4.965.33l-1.67-1.46a3.517 3.517 0 01-.33-4.965l54.77-62.594c4.58-5.232 4.049-13.186-1.183-17.764l-.191-.167c-5.233-4.579-13.187-4.048-17.764 1.184l-97.503 111.43a141.534 141.534 0 00-31.96 63.933l-.116.548c-.249 1.177-.39 2.36-.502 3.54L195.517 1302.04l49.199 43.054 279.11-322.562a12.671 12.671 0 00-1.72-1.838" fill="#fdf6c0"/><path d="M129.58 1514.027L56.5 1450.08l139.665-155.534 73.082 63.947-139.666 155.534" fill="#f89bd2"/><path d="M262.704 1378.84l-85.84-75.108 31.348-35.824 85.839 75.105-31.347 35.827" fill="#ee2660"/><path d="M429.837 1094.753l-19.138-16.746 6.389-7.303 19.139 16.747-6.39 7.302" fill="#f57a14"/><path d="M358.69 1260.281l-75.066-65.684 9.85-11.258 75.067 65.683-9.85 11.26" fill="#f89bd2"/><path d="M340.567 1234.484c-7.347 8.662-20.472 9.414-29.02 1.935-8.548-7.48-9.415-20.474-1.935-29.02 7.48-8.548 20.31-9.225 29.02-1.935 8.028 6.72 9.312 20.322 1.935 29.02" fill="#ee2660"/><path d="M336.132 1230.604c-5.336 6.099-14.607 6.716-20.705 1.38-6.099-5.336-6.716-14.607-1.38-20.705 5.336-6.1 14.606-6.717 20.705-1.38 6.099 5.335 6.717 14.606 1.38 20.705" fill="#fff"/><path d="M457.397 316.5l.303.012c11.375.484 20.99-8.34 21.48-19.713l.585-13.538c.24-5.564 7.428-7.614 10.57-3.016l54.692 80.074c3.921 5.742 11.754 7.217 17.496 3.296l.209-.144c5.741-3.922 7.217-11.755 3.296-17.495l-42.499-62.221a3.517 3.517 0 01.922-4.89l.058-.04a3.518 3.518 0 014.89.92l64.841 94.934c3.921 5.741 11.755 7.217 17.495 3.296l.21-.144c5.742-3.922 7.216-11.755 3.295-17.496l-64.841-94.932a3.518 3.518 0 01.921-4.89l.65-.445a3.519 3.519 0 014.891.921l58.22 85.24c3.923 5.742 11.755 7.216 17.496 3.295l.21-.143c5.741-3.92 7.217-11.754 3.296-17.496l-58.222-85.24a3.519 3.519 0 01.922-4.89l1.832-1.25a3.518 3.518 0 014.889.92l46.912 68.682c3.921 5.741 11.753 7.217 17.495 3.296l.21-.144c5.742-3.922 7.216-11.755 3.295-17.496l-83.51-122.267a141.545 141.545 0 00-53.911-46.93l-.503-.25c-1.077-.535-2.187-.967-3.303-1.372l-53.506-78.337-76.518 52.262 57.064 83.547a45.212 45.212 0 001.074 10.024l4.794 21.575.07.1a36.273 36.273 0 016.285 22.021l-3.05 70.561a9.406 9.406 0 008.995 9.803" fill="#f9ad38"/><path d="M632.577 349.524l.21-.143c5.741-3.92 7.217-11.754 3.296-17.496l-58.222-85.24a3.519 3.519 0 01.922-4.89l1.832-1.25a3.518 3.518 0 014.889.92l46.912 68.682c3.921 5.741 11.753 7.217 17.495 3.296l.21-.144c5.742-3.922 7.216-11.755 3.295-17.496l-83.51-122.267a141.529 141.529 0 00-53.913-46.93l-.501-.25c-1.077-.535-2.187-.967-3.303-1.372l-53.506-78.337-30.034 20.513 196.498 284.581c2.556.07 5.157-.624 7.43-2.177" fill="#e3ab66"/><path d="M550.399 265.403a3.518 3.518 0 01.921-4.89l.65-.445a3.519 3.519 0 014.891.921l58.22 85.24c2.37 3.468 6.166 5.367 10.066 5.472L428.649 67.121l-46.484 31.748 57.064 83.547a45.212 45.212 0 001.074 10.024l4.794 21.575.07.1a36.273 36.273 0 016.285 22.021l-3.05 70.561a9.406 9.406 0 008.995 9.803l.303.012c11.375.484 20.988-8.34 21.48-19.713l.585-13.538c.242-5.564 7.428-7.614 10.57-3.016l54.692 80.074c3.921 5.742 11.754 7.217 17.496 3.296l.209-.144c5.741-3.922 7.217-11.755 3.296-17.495l-42.499-62.221a3.517 3.517 0 01.922-4.89l.058-.04a3.518 3.518 0 014.89.92l64.841 94.934c3.921 5.741 11.755 7.217 17.495 3.296l.21-.144c5.742-3.922 7.216-11.755 3.295-17.496l-64.841-94.932" fill="#f8c27c"/><path d="M267.912-51.08l95.53-65.253L492.188 73.47l-95.529 65.25-128.748-189.8" fill="#543b29"/><path d="M444.39 106.119L315.644-83.68l-47.731 32.6 128.748 189.8 47.73-32.601" fill="#3d281d"/><path d="M376.643 117.647l103.2-70.488 26.848 39.308-103.2 70.488-26.848-39.308" fill="#9b6f47"/><path d="M398.924 131.25c-3.055-4.47-1.905-10.57 2.565-13.625 4.472-3.053 10.572-1.904 13.626 2.567 3.054 4.47 1.905 10.572-2.566 13.625-4.472 3.055-10.572 1.906-13.625-2.566" fill="#dec9b6"/><path d="M1669.907 1027.093l-.307-.013c-11.373-.484-20.987 8.34-21.48 19.713l-.587 13.538c-.24 5.564-7.426 7.616-10.573 3.016l-54.693-80.074c-3.92-5.741-11.747-7.216-17.494-3.294l-.213.142c-5.733 3.922-7.213 11.755-3.293 17.496l42.506 62.22a3.524 3.524 0 01-.92 4.89l-.066.041a3.527 3.527 0 01-4.894-.921l-64.84-94.934c-3.92-5.741-11.746-7.216-17.493-3.294l-.213.142c-5.734 3.922-7.214 11.755-3.294 17.496l64.84 94.934a3.5 3.5 0 01-.92 4.889l-.64.444a3.521 3.521 0 01-4.893-.92l-58.227-85.24c-3.92-5.743-11.746-7.217-17.493-3.296l-.213.144c-5.734 3.921-7.214 11.755-3.294 17.495l58.227 85.241a3.524 3.524 0 01-.92 4.89l-1.84 1.25a3.507 3.507 0 01-4.88-.92l-46.92-68.683c-3.92-5.741-11.747-7.216-17.493-3.294l-.214.142c-5.733 3.922-7.213 11.755-3.293 17.496l83.507 122.267a141.582 141.582 0 0053.92 46.93l.493.25c1.08.534 2.187.968 3.307 1.372l53.506 78.337 76.52-52.263-57.066-83.545a45.837 45.837 0 00-1.067-10.024l-4.8-21.574-.067-.102a36.253 36.253 0 01-6.293-22.021l3.053-70.561c.227-5.192-3.8-9.582-8.986-9.802" fill="#f8c27c"/><path d="M1859.387 1394.68l-95.534 65.24-128.746-189.799 95.533-65.25 128.747 189.809" fill="#543b29"/><path d="M1682.907 1237.474l128.746 189.806 47.734-32.6-128.747-189.808-47.733 32.602" fill="#3d281d"/><path d="M1750.653 1225.947l-103.2 70.486-26.84-39.308 103.2-70.487 26.84 39.309" fill="#9b6f47"/><path d="M1728.373 1212.341c3.054 4.471 1.907 10.572-2.56 13.626-4.48 3.054-10.573 1.905-13.626-2.567-3.054-4.47-1.907-10.57 2.56-13.625 4.48-3.054 10.573-1.906 13.626 2.566" fill="#dec9b6"/><path d="M351.361 795.71l.18-.245c6.775-9.149 4.855-22.057-4.289-28.837l-10.883-8.072c-4.473-3.317-2.144-10.42 3.426-10.444l96.968-.42c6.953-.03 12.564-5.69 12.534-12.643l-.001-.254c-.03-6.952-5.69-12.564-12.643-12.534l-75.349.326a3.518 3.518 0 01-3.533-3.503v-.07a3.518 3.518 0 013.502-3.534l114.963-.499c6.953-.029 12.564-5.69 12.535-12.642l-.002-.255c-.03-6.952-5.69-12.564-12.644-12.533l-114.962.497a3.517 3.517 0 01-3.532-3.503l-.004-.788a3.52 3.52 0 013.502-3.534l103.226-.447c6.953-.03 12.564-5.69 12.534-12.643l-.001-.254c-.03-6.952-5.69-12.564-12.644-12.534l-103.225.447a3.52 3.52 0 01-3.534-3.503l-.009-2.218a3.52 3.52 0 013.503-3.535l83.174-.36c6.952-.03 12.564-5.69 12.534-12.643l-.002-.254c-.029-6.952-5.69-12.564-12.642-12.534l-148.064.642a141.52 141.52 0 00-69.082 18.348l-.488.276c-1.046.592-2.026 1.268-2.988 1.965l-94.865.41.402 92.663 101.173-.438a45.19 45.19 0 008.904 4.729l20.554 8.12.122-.001a36.27 36.27 0 0121.761 7.136l56.73 42.07c4.174 3.096 10.066 2.219 13.16-1.956" fill="#f8c27c"/><path d="M-60.017 736.579l-.421-97.107 230.057-.708.42 97.107-230.056.708" fill="#23626a"/><path d="M169.843 690.399l-230.057.708.197 45.472 230.056-.708-.196-45.472" fill="#1c4546"/><path d="M141.384 744.472l-.495-114.06 47.603-.207.495 114.062-47.603.205" fill="#43bbbc"/><path d="M165.161 738.733c-5.414.023-9.824-4.348-9.846-9.762-.024-5.415 4.346-9.823 9.761-9.847 5.415-.023 9.823 4.348 9.847 9.763.022 5.414-4.347 9.822-9.762 9.846" fill="#d8f2f1"/><path d="M1586.24 239.841v.303c.053 11.384 9.32 20.575 20.707 20.533l13.546-.049c5.574-.02 7.96 7.064 3.507 10.417l-77.427 58.382c-5.546 4.185-6.653 12.078-2.466 17.63l.146.203c4.187 5.55 12.08 6.657 17.627 2.472l60.173-45.364a3.508 3.508 0 014.92.69l.04.058a3.517 3.517 0 01-.68 4.927l-91.8 69.214c-5.546 4.186-6.653 12.08-2.466 17.631l.146.203c4.187 5.552 12.08 6.658 17.627 2.472l91.8-69.214a3.525 3.525 0 014.933.691l.467.63a3.507 3.507 0 01-.693 4.926l-82.414 62.148c-5.56 4.187-6.666 12.08-2.48 17.63l.16.205c4.187 5.55 12.08 6.657 17.627 2.472l82.427-62.148a3.512 3.512 0 014.92.69l1.333 1.772a3.517 3.517 0 01-.68 4.927l-66.413 50.076c-5.56 4.187-6.667 12.08-2.48 17.63l.16.203c4.186 5.552 12.08 6.66 17.626 2.472l118.227-89.142a141.433 141.433 0 0044.347-56.05l.226-.513c.494-1.101.867-2.23 1.227-3.363l75.747-57.114-55.787-73.987-80.787 60.912c-3.32.14-6.666.644-9.96 1.541l-21.333 5.8-.093.074a36.27 36.27 0 01-21.707 7.31l-70.627.255c-5.2.02-9.386 4.25-9.373 9.445" fill="#f9ad38"/><path d="M1951.173 40.96l58.467 77.536-183.867 138.277-58.466-77.536L1951.173 40.96" fill="#5dc133"/><path d="M1794.693 215.545L1978.547 77.27l-27.374-36.309-183.866 138.277 27.386 36.308" fill="#85d058"/><path d="M1785.12 155.195l68.667 91.073-38 28.659-68.68-91.074 38.013-28.658" fill="#41b93c"/><path d="M1769.507 174.024c4.32-3.26 10.466-2.397 13.733 1.925 3.253 4.324 2.4 10.472-1.933 13.732-4.32 3.26-10.467 2.398-13.72-1.926-3.267-4.323-2.4-10.47 1.92-13.73" fill="#d8f2f1"/><path d="M455.968 1056.557l.013-.302c.463-11.375-8.378-20.974-19.753-21.444l-13.537-.562c-5.564-.23-7.63-7.414-3.036-10.564l79.976-54.836c5.734-3.932 7.194-11.766 3.264-17.501l-.144-.21c-3.932-5.734-11.768-7.195-17.502-3.263l-62.144 42.61a3.52 3.52 0 01-4.892-.913l-.04-.059a3.518 3.518 0 01.912-4.89l94.816-65.012c5.735-3.932 7.196-11.767 3.264-17.502l-.144-.209c-3.93-5.735-11.766-7.195-17.501-3.264l-94.816 65.012a3.518 3.518 0 01-4.89-.912l-.447-.65a3.518 3.518 0 01.912-4.891l85.136-58.375c5.734-3.932 7.194-11.767 3.264-17.501l-.144-.21c-3.932-5.734-11.768-7.196-17.502-3.264l-85.136 58.375a3.518 3.518 0 01-4.89-.912l-1.255-1.83a3.518 3.518 0 01.912-4.891l68.597-47.035c5.735-3.932 7.196-11.768 3.264-17.501l-.144-.211c-3.932-5.733-11.768-7.195-17.501-3.264l-122.117 83.732a141.528 141.528 0 00-46.834 53.995l-.248.502c-.533 1.079-.964 2.19-1.366 3.306l-78.242 53.646 52.402 76.423 83.442-57.213c3.326.01 6.686-.343 10.023-1.091l21.565-4.835.102-.068a36.262 36.262 0 0122.009-6.325l70.567 2.923c5.192.214 9.574-3.822 9.785-9.014" fill="#f9ad38"/><path d="M-25.386 1327l-65.42-95.412 303.683-209.385 65.422 95.412L-25.386 1327" fill="#3e49a6"/><path d="M246.624 1071.419L-57.06 1280.804-25.386 1327l303.685-209.385-31.675-46.196" fill="#313f8b"/><path d="M257.261 1137.67l-70.673-103.073 39.26-26.918 70.673 103.072-39.26 26.92" fill="#5560b6"/><path d="M271.683 1116.615c-4.466 3.062-10.568 1.924-13.63-2.542-3.062-4.465-1.924-10.568 2.542-13.63 4.465-3.062 10.568-1.924 13.63 2.542 3.062 4.466 1.924 10.568-2.542 13.63" fill="#6b9dd8"/><path d="M806.597 1069.55l-.194-.234c-7.302-8.733-20.299-9.899-29.039-2.604l-10.401 8.684c-4.275 3.57-10.632-.364-9.347-5.783l22.367-94.354c1.604-6.766-2.58-13.55-9.346-15.154l-.248-.058c-6.765-1.603-13.549 2.581-15.153 9.345l-17.38 73.319a3.516 3.516 0 01-4.235 2.61l-.068-.016a3.517 3.517 0 01-2.612-4.234l26.518-111.864c1.602-6.766-2.582-13.55-9.347-15.154l-.247-.058c-6.765-1.603-13.549 2.581-15.153 9.346l-26.517 111.864a3.518 3.518 0 01-4.235 2.611l-.767-.181a3.517 3.517 0 01-2.612-4.235l23.81-100.443c1.604-6.765-2.58-13.549-9.346-15.153l-.248-.059c-6.764-1.604-13.549 2.582-15.152 9.346l-23.81 100.442a3.518 3.518 0 01-4.235 2.612l-2.159-.512a3.518 3.518 0 01-2.612-4.234l19.184-80.931c1.604-6.767-2.58-13.55-9.345-15.153l-.247-.059c-6.765-1.604-13.549 2.58-15.153 9.345l-34.152 144.074a141.522 141.522 0 001.61 71.457l.153.539c.33 1.157.757 2.269 1.209 3.366l-21.881 92.308 90.164 21.374 23.336-98.446a45.143 45.143 0 006.688-7.544l12.721-18.073.028-.119a36.267 36.267 0 0112.047-19.476l54.218-45.261c3.988-3.33 4.522-9.264 1.188-13.25" fill="#b8946f"/><path d="M607.01 1249.85l88.866 21.067 23.23-98 .154-.138a44.5 44.5 0 006.59-7.434l12.647-17.968c1.871-7.777 6.214-14.774 12.267-19.828l54.217-45.26a8.683 8.683 0 003.104-5.928 8.68 8.68 0 00-2-6.385l-.194-.232a19.911 19.911 0 00-15.322-7.157 19.98 19.98 0 00-12.778 4.637l-10.4 8.684c-1.195.997-2.614 1.523-4.104 1.523-1.979 0-3.903-.939-5.148-2.514-1.223-1.546-1.639-3.485-1.172-5.457l22.368-94.355c1.514-6.397-2.456-12.834-8.852-14.352l-.247-.058a12.018 12.018 0 00-2.76-.324 11.876 11.876 0 00-11.59 9.176l-17.38 73.317a4.17 4.17 0 01-5.038 3.105c-2.313-.548-3.708-2.808-3.176-5.052l26.517-111.864c1.518-6.396-2.454-12.834-8.85-14.352l-.247-.058a12.01 12.01 0 00-2.76-.324 11.877 11.877 0 00-11.592 9.176l-26.516 111.864a4.17 4.17 0 01-4.07 3.22 4.24 4.24 0 01-.967-.114l-.768-.182a4.155 4.155 0 01-2.596-1.875 4.153 4.153 0 01-.511-3.161l23.81-100.444a11.841 11.841 0 00-1.454-9.008 11.837 11.837 0 00-7.396-5.342l-.248-.058a12.02 12.02 0 00-2.761-.324 11.873 11.873 0 00-11.59 9.174l-23.809 100.443a4.17 4.17 0 01-5.037 3.107l-2.16-.512a4.191 4.191 0 01-3.107-5.038l19.185-80.932a11.841 11.841 0 00-1.453-9.008 11.838 11.838 0 00-7.397-5.341l-.247-.059a12.031 12.031 0 00-2.761-.325 11.876 11.876 0 00-11.591 9.175l-34.152 144.073a141.204 141.204 0 001.601 71.123l.154.538c.345 1.206.793 2.34 1.185 3.294l.081.197-.049.21zm89.855 22.671l-91.461-21.68 21.987-92.75c-.387-.944-.815-2.052-1.154-3.235l-.153-.541a142.519 142.519 0 01-1.617-71.794l34.152-144.073a13.204 13.204 0 0112.888-10.201c1.026 0 2.058.121 3.068.361l.248.059a13.164 13.164 0 018.224 5.938 13.166 13.166 0 011.616 10.016l-19.186 80.931a2.856 2.856 0 002.118 3.433l2.158.512c1.524.354 3.075-.612 3.434-2.117l23.81-100.443a13.199 13.199 0 0112.886-10.2c1.026 0 2.06.122 3.069.36l.247.059a13.175 13.175 0 018.225 5.939 13.165 13.165 0 011.615 10.016l-23.81 100.442a2.854 2.854 0 002.116 3.432l.77.183c1.522.356 3.074-.61 3.432-2.117l26.516-111.863a13.207 13.207 0 0112.889-10.203c1.027 0 2.059.122 3.067.362l.248.058c7.112 1.686 11.525 8.844 9.84 15.956l-26.518 111.863a2.858 2.858 0 002.118 3.433c.286.067.509.094.729.094a2.84 2.84 0 002.772-2.195l17.38-73.316a13.205 13.205 0 0112.888-10.203c1.027 0 2.059.122 3.067.362l.246.058c7.114 1.686 11.527 8.844 9.842 15.956l-22.367 94.354c-.37 1.568-.044 3.104.921 4.324 1.734 2.194 5.122 2.654 7.351.793l10.401-8.684a21.316 21.316 0 0113.632-4.947c6.331 0 12.288 2.783 16.346 7.636l.196.234a9.998 9.998 0 012.301 7.357 10 10 0 01-3.576 6.832l-54.217 45.261a35.824 35.824 0 00-11.827 19.119l-.13.348-12.72 18.073a46.13 46.13 0 01-6.634 7.516l-23.443 98.892" fill="#f9ad38"/><path d="M668.17 1390.693l-94.49-22.4 37.677-158.947 94.49 22.4-37.678 158.947" fill="#4d7bc6"/><path d="M655.132 1219.722l-37.677 158.945 50.714 12.026 37.678-158.948-50.715-12.023" fill="#3e6fb4"/><path d="M707.477 1261.619l-110.986-26.31 10.98-46.318 110.986 26.307-10.98 46.32" fill="#6b9dd8"/><path d="M711.145 1210.977l-95.201-22.568 9.139-38.552 95.202 22.567-9.14 38.553" fill="#282628"/><path d="M691.43 1206.828l-50.309-11.925 12.123-51.143 50.308 11.927-12.123 51.141" fill="#72727e"/><path d="M686.652 1198.938l-37.72-8.942 9.09-38.345 37.72 8.941-9.09 38.346" fill="#c7c3ca"/><path d="M700.183 1235.428c-1.25 5.27-6.534 8.528-11.802 7.279-5.269-1.25-8.528-6.532-7.278-11.802 1.249-5.267 6.533-8.526 11.801-7.278 5.27 1.249 8.528 6.533 7.279 11.801" fill="#d8f2f1"/><path d="M1285.49 86.217l.093.288c3.486 10.838 15.094 16.8 25.933 13.322l12.903-4.14c5.302-1.702 9.714 4.33 6.49 8.87l-56.172 79.043c-4.026 5.668-2.697 13.527 2.97 17.555l.208.146c5.666 4.028 13.526 2.698 17.553-2.969l43.652-61.42a3.517 3.517 0 014.907-.83l.053.04a3.51 3.51 0 01.827 4.907l-66.592 93.711c-4.028 5.668-2.699 13.527 2.969 17.555l.207.146c5.668 4.028 13.526 2.7 17.554-2.969l66.595-93.71a3.518 3.518 0 014.907-.831l.64.457a3.508 3.508 0 01.826 4.905l-59.79 84.144c-4.028 5.668-2.699 13.527 2.969 17.554l.207.148c5.668 4.026 13.526 2.697 17.554-2.97l59.794-84.144a3.519 3.519 0 014.906-.829l1.814 1.285a3.531 3.531 0 01.826 4.906l-48.186 67.798c-4.027 5.668-2.694 13.527 2.973 17.554l.213.148c5.667 4.026 13.52 2.697 17.547-2.97l85.773-120.694a141.479 141.479 0 0025.347-66.83l.067-.557c.12-1.196.146-2.387.133-3.575l54.96-77.328-75.533-53.68-58.614 82.474a45.461 45.461 0 00-9.026 4.48l-18.574 11.972-.08.098a36.215 36.215 0 01-18.48 13.524l-67.244 21.582c-4.948 1.59-7.67 6.888-6.08 11.834" fill="#b8946f"/><path d="M1395.613 172.879c.88 0 1.72.266 2.427.773l1.813 1.285a4.194 4.194 0 01.987 5.836l-48.187 67.798c-3.8 5.358-2.546 12.816 2.814 16.624l.213.148a11.83 11.83 0 006.893 2.205 11.98 11.98 0 009.734-5.017l85.76-120.695a141.132 141.132 0 0025.226-66.515l.067-.556c.133-1.253.147-2.472.133-3.498v-.215l.134-.176 54.56-76.785-74.44-52.904-58.347 82.096-.2.07a44.864 44.864 0 00-8.893 4.414l-18.467 11.902c-4.667 6.507-11.32 11.36-18.813 13.768l-67.255 21.582a8.673 8.673 0 00-5.101 4.326 8.683 8.683 0 00-.547 6.668l.095.29a19.893 19.893 0 0018.99 13.85h.002c2.064 0 4.117-.324 6.102-.96l12.902-4.14c3.049-.98 6.284.411 7.732 3.218 1.118 2.168.934 4.662-.495 6.672l-56.17 79.044c-3.809 5.358-2.547 12.816 2.811 16.624l.206.146a11.851 11.851 0 006.897 2.206c3.86 0 7.496-1.876 9.73-5.016l43.647-61.42c1.28-1.812 4.014-2.282 5.84-.988a4.285 4.285 0 011.76 2.754 4.194 4.194 0 01-.72 3.123l-66.596 93.71c-3.806 5.36-2.545 12.817 2.814 16.625l.206.146a11.838 11.838 0 006.896 2.206c3.859 0 7.496-1.876 9.73-5.018l66.59-93.71a4.208 4.208 0 013.414-1.762c.88 0 1.706.268 2.426.774l.64.457a4.194 4.194 0 01.987 5.836l-59.795 84.144a11.842 11.842 0 00-2.036 8.895 11.837 11.837 0 004.85 7.728l.206.148a11.837 11.837 0 006.895 2.205c3.86 0 7.496-1.876 9.73-5.017l59.79-84.143a4.205 4.205 0 013.413-1.761zm-33.04 96.002c-2.76 0-5.413-.848-7.666-2.452l-.214-.146c-5.96-4.234-7.36-12.526-3.12-18.484L1399.747 180a2.86 2.86 0 00-.667-3.977l-1.813-1.285c-1.24-.883-3.094-.56-3.974.673l-59.8 84.143a13.28 13.28 0 01-10.813 5.578 13.17 13.17 0 01-7.668-2.452l-.207-.146a13.176 13.176 0 01-5.392-8.595c-.589-3.49.214-7.003 2.266-9.888l59.801-84.144a2.86 2.86 0 00-.68-3.976l-.64-.457c-1.24-.883-3.093-.563-3.973.672l-66.599 93.712a13.288 13.288 0 01-10.815 5.577c-2.761 0-5.412-.848-7.669-2.45l-.208-.149c-5.956-4.233-7.359-12.525-3.124-18.482l66.588-93.712c.453-.62.613-1.376.493-2.127a2.886 2.886 0 00-1.16-1.85c-1.386-.989-3.16-.6-4.04.633l-43.642 61.42a13.287 13.287 0 01-10.815 5.577c-2.759 0-5.41-.848-7.668-2.45l-.205-.147c-5.96-4.235-7.363-12.527-3.128-18.484l56.17-79.044c1.135-1.596 1.282-3.572.396-5.288-1.154-2.242-3.696-3.344-6.141-2.562l-12.9 4.14a21.257 21.257 0 01-6.51 1.024 21.222 21.222 0 01-20.26-14.774l-.095-.29c-.823-2.56-.6-5.29.629-7.685a10.008 10.008 0 015.881-4.988l67.248-21.581c7.267-2.334 13.72-7.048 18.147-13.276l.253-.274 18.574-11.972a45.903 45.903 0 018.973-4.473l58.867-82.852.546.387 76.08 54.07-55.226 77.696a28.593 28.593 0 01-.147 3.434l-.053.557c-2.6 24.136-11.414 47.355-25.467 67.144l-85.773 120.695a13.276 13.276 0 01-10.814 5.578" fill="#f9ad38"/><path d="M1534.413-159.413l79.16 56.253-94.626 133.155-79.16-56.25 94.626-133.158" fill="#4d7bc6"/><path d="M1482.267 3.935l94.626-133.148-42.48-30.2-94.626 133.157 42.48 30.19" fill="#3e6fb4"/><path d="M1449.493-54.56l92.987 66.077-27.573 38.803-92.987-66.072 27.573-38.808" fill="#6b9dd8"/><path d="M1427.08-9l79.747 56.676-22.947 32.296-79.76-56.675L1427.08-9" fill="#282628"/><path d="M1443.787 2.252l42.146 29.95-30.44 42.842-42.146-29.95 30.44-42.842" fill="#72727e"/><path d="M1445.253 11.36l31.6 22.455-22.826 32.122-31.6-22.456 22.826-32.12" fill="#c7c3ca"/><path d="M194.07 606.42l.217-.212c8.097-8.003 8.177-21.053.18-29.155l-9.519-9.644c-3.912-3.962-.523-10.625 4.985-9.796l95.888 14.442c6.876 1.036 13.288-3.699 14.323-10.574l.039-.25c1.034-6.876-3.699-13.288-10.574-14.324L215.1 535.685a3.518 3.518 0 01-2.955-4.002l.011-.07a3.518 3.518 0 014.003-2.956L329.84 545.78c6.876 1.034 13.288-3.699 14.323-10.574l.038-.252c1.035-6.874-3.698-13.288-10.573-14.322l-113.683-17.122a3.518 3.518 0 01-2.954-4.002l.117-.78a3.518 3.518 0 014.003-2.955l102.076 15.372c6.874 1.036 13.286-3.697 14.322-10.573l.038-.25c1.036-6.877-3.699-13.289-10.574-14.325L224.9 470.624a3.52 3.52 0 01-2.955-4.004l.33-2.193a3.518 3.518 0 014.003-2.955l82.247 12.387c6.875 1.034 13.288-3.699 14.323-10.574l.037-.252c1.036-6.874-3.697-13.288-10.573-14.322l-146.414-22.05a141.541 141.541 0 00-71.077 7.546l-.524.198c-1.126.426-2.198.943-3.253 1.486l-93.81-14.128-13.8 91.63L83.48 528.458a45.162 45.162 0 008.074 6.037l19.068 11.173.12.02a36.26 36.26 0 0120.411 10.384l49.615 50.266c3.65 3.697 9.608 3.734 13.303.081" fill="#b8946f"/><path d="M110.848 545.03c7.91 1.218 15.243 4.965 20.78 10.575l49.613 50.266a8.682 8.682 0 006.22 2.598 8.68 8.68 0 006.142-2.522l.217-.215c7.819-7.73 7.897-20.384.173-28.21l-9.518-9.645c-1.864-1.886-2.39-4.573-1.371-7.009 1.147-2.74 3.876-4.37 6.928-3.913l95.888 14.441c.593.09 1.197.135 1.792.135 5.841 0 10.903-4.363 11.773-10.148l.038-.25a11.847 11.847 0 00-2.196-8.858 11.846 11.846 0 00-7.818-4.708l-74.508-11.222a4.157 4.157 0 01-2.744-1.653 4.148 4.148 0 01-.77-3.108c.348-2.313 2.465-3.933 4.77-3.585l113.683 17.12c.593.09 1.196.134 1.79.134 5.84 0 10.903-4.362 11.775-10.148l.038-.25c.977-6.5-3.515-12.586-10.015-13.566l-113.681-17.12a4.16 4.16 0 01-2.744-1.653 4.156 4.156 0 01-.771-3.108l.119-.781c.334-2.234 2.442-3.85 4.76-3.515l102.074 15.373c.594.09 1.196.135 1.791.135 5.841 0 10.903-4.363 11.773-10.148l.04-.255c.978-6.497-3.514-12.582-10.014-13.56l-102.076-15.374a4.189 4.189 0 01-3.514-4.762l.331-2.194a4.205 4.205 0 014.76-3.515l82.247 12.387a12.1 12.1 0 001.792.134c5.84 0 10.901-4.362 11.773-10.148l.039-.25a11.855 11.855 0 00-2.199-8.858 11.851 11.851 0 00-7.816-4.708l-146.415-22.05a141.278 141.278 0 00-20.977-1.57 140.384 140.384 0 00-49.764 9.082l-.524.198c-1.166.44-2.264.982-3.185 1.454l-.191.098-93.362-14.06-13.6 90.311 99.59 14.999.152.141a44.471 44.471 0 007.956 5.948zm76.613 64.773c-2.714 0-5.26-1.064-7.168-2.996L130.68 556.54a35.828 35.828 0 00-20.035-10.194l-.36-.103-19.067-11.172a45.824 45.824 0 01-8.04-5.985L-17.325 513.95l.1-.659 13.899-92.288L90.929 435.2c.914-.466 1.985-.984 3.132-1.418l.523-.197a141.708 141.708 0 0150.236-9.17c7.065 0 14.188.534 21.176 1.586l146.413 22.05a13.179 13.179 0 018.692 5.235 13.174 13.174 0 012.443 9.847l-.037.252c-.97 6.432-6.599 11.283-13.092 11.283-.662 0-1.331-.05-1.99-.15l-82.248-12.386c-1.569-.243-3.013.872-3.244 2.394l-.33 2.195a2.856 2.856 0 002.394 3.244l102.075 15.373c7.228 1.088 12.223 7.855 11.135 15.082l-.039.254c-.97 6.43-6.597 11.28-13.092 11.28-.661 0-1.33-.05-1.99-.149l-102.074-15.373c-1.573-.242-3.015.873-3.244 2.394l-.119.782a2.835 2.835 0 00.527 2.117 2.833 2.833 0 001.87 1.125l113.68 17.122c7.227 1.09 12.223 7.854 11.134 15.082l-.037.251c-.97 6.433-6.596 11.283-13.092 11.283-.662 0-1.331-.05-1.99-.148L216.06 529.317c-1.557-.237-3.015.871-3.245 2.395-.124.823.062 1.576.516 2.188a2.83 2.83 0 001.868 1.127l74.509 11.22a13.177 13.177 0 018.69 5.236 13.165 13.165 0 012.443 9.848l-.038.25c-.968 6.432-6.596 11.283-13.091 11.283-.661 0-1.33-.05-1.99-.15l-95.887-14.44c-2.456-.373-4.576.895-5.5 3.109-.82 1.96-.414 4.037 1.088 5.558l9.518 9.644c8.24 8.35 8.158 21.851-.185 30.096l-.217.215a10.007 10.007 0 01-7.078 2.907" fill="#f9ad38"/><path d="M-137.47 495.183l14.462-96.026 161.527 24.328-14.461 96.024-161.527-24.326" fill="#4d7bc6"/><path d="M31.82 467.97l-161.528-24.326-7.761 51.539 161.527 24.326 7.762-51.538" fill="#3e6fb4"/><path d="M-5.577 523.62L11.41 410.83l47.072 7.089-16.987 112.79-47.072-7.089" fill="#6b9dd8"/><path d="M45.194 523.063l14.571-96.748 39.18 5.9-14.572 96.75-39.179-5.902" fill="#282628"/><path d="M47.69 503.07l7.7-51.126 51.972 7.827-7.7 51.126-51.972-7.828" fill="#72727e"/><path d="M55.156 497.652l5.773-38.332 38.967 5.868-5.773 38.333-38.967-5.869" fill="#c7c3ca"/><path d="M19.916 514.172c-5.355-.807-9.042-5.801-8.235-11.155.807-5.354 5.8-9.04 11.155-8.236 5.355.807 9.041 5.802 8.235 11.156-.806 5.354-5.8 9.04-11.155 8.235" fill="#d8f2f1"/><path d="M1196.392 1018.952l-.301-.032c-11.322-1.197-21.472 7.004-22.678 18.324l-1.436 13.473c-.589 5.538-7.892 7.134-10.737 2.346l-49.548-83.356c-3.552-5.976-11.276-7.942-17.253-4.39l-.219.131c-5.976 3.552-7.941 11.277-4.39 17.253l38.5 64.771a3.518 3.518 0 01-1.226 4.823l-.06.036a3.52 3.52 0 01-4.823-1.227l-58.741-98.824c-3.552-5.977-11.276-7.941-17.253-4.39l-.219.131c-8.061 5.743-10.863 14.348-4.39 17.254l58.742 98.824a3.517 3.517 0 01-1.227 4.821l-.677.403a3.518 3.518 0 01-4.823-1.227l-52.742-88.733c-3.554-5.978-11.278-7.942-17.255-4.39l-.219.13c-5.976 3.553-7.941 11.277-4.388 17.254l52.743 88.734a3.518 3.518 0 01-1.227 4.822l-1.906 1.134a3.52 3.52 0 01-4.823-1.227l-42.497-71.497c-3.554-5.978-11.278-7.942-17.254-4.39l-.218.13c-5.978 3.553-7.942 11.277-4.39 17.254l75.655 127.278a141.527 141.527 0 0050.852 50.229l.485.28c1.042.603 2.122 1.104 3.21 1.577l48.472 81.548 79.654-47.345-51.696-86.97c.226-3.318.091-6.693-.44-10.073l-3.428-21.833-.062-.104a36.275 36.275 0 01-4.888-22.373l7.482-70.23c.551-5.168-3.194-9.802-8.361-10.349" fill="#fcd599"/><path d="M1350.613 1370.146l-99.444 59.12-104.788-169.956 99.444-59.109 104.788 169.945" fill="#d8f2f1"/><path d="M1196.139 1229.734l104.789 169.946 49.685-29.534-104.788-169.945-49.686 29.533" fill="#a2d7be"/><path d="M1264.479 1222.492l-107.43 63.856-24.322-40.92 107.429-63.856 24.323 40.92" fill="#b9e0f6"/><path d="M1227.39 1186.23l-84.106 49.991-20.244-34.058 84.104-49.992 20.245 34.058" fill="#95431d"/><path d="M1213.317 1198.17c-12.902 15.922-23.292 22.098-43.442 25.822-7.59-12.765-15.178-25.532-22.766-38.297 12.902-15.923 23.291-22.098 43.443-25.823l22.765 38.297" fill="#72727e"/><path d="M1203.577 1200.083l-27.369 16.268a3.921 3.921 0 01-5.373-1.367l-15.352-25.83a3.92 3.92 0 011.366-5.373l27.368-16.268a3.921 3.921 0 015.374 1.367l15.353 25.83a3.92 3.92 0 01-1.367 5.373" fill="#e3e2e3"/><path d="M1247.721 1204.764c2.767 4.655 1.236 10.67-3.418 13.437-4.655 2.767-10.671 1.237-13.438-3.418-2.766-4.655-1.236-10.671 3.419-13.438 4.653-2.766 10.67-1.236 13.437 3.419" fill="#4d7bc6"/><path d="M203.39 247.837l.293-.076c11.024-2.84 17.66-14.078 14.825-25.104l-3.372-13.122c-1.387-5.395 4.895-9.446 9.236-5.958l75.597 60.73c5.42 4.354 13.344 3.49 17.699-1.93l.159-.198c4.354-5.42 3.49-13.344-1.93-17.698l-58.742-47.19a3.517 3.517 0 01-.539-4.946l.044-.056a3.517 3.517 0 014.945-.538l89.627 71.998c5.42 4.355 13.344 3.491 17.697-1.929l.16-.199c5.539-8.202 5.151-17.244-1.93-17.698l-89.626-71.999a3.52 3.52 0 01-.54-4.947l.495-.614a3.518 3.518 0 014.945-.54l80.476 64.65c5.42 4.354 13.344 3.488 17.698-1.932l.16-.197c4.353-5.421 3.489-13.345-1.931-17.699l-80.475-64.649a3.518 3.518 0 01-.54-4.945l1.391-1.73a3.516 3.516 0 014.945-.54L369 190.872c5.421 4.355 13.344 3.49 17.699-1.93l.158-.198c4.355-5.421 3.491-13.345-1.929-17.699l-115.432-92.73a141.53 141.53 0 00-65.22-29.243l-.553-.093c-1.187-.199-2.374-.29-3.559-.354l-73.958-59.413-58.033 72.24 78.875 63.363a45.23 45.23 0 003.94 9.28l10.856 19.25.095.078a36.257 36.257 0 0112.412 19.245l17.582 68.404a9.406 9.406 0 0011.456 6.765" fill="#fcd599"/><path d="M-33.727-6.93l72.452-90.19L166.072 5.183 93.62 95.373-33.727-6.932" fill="#f9da1a"/><path d="M129.82 50.31L2.473-51.988-33.726-6.93 93.62 95.372l36.2-45.063" fill="#f78d11"/><path d="M68.344 81.024l78.268-97.43 37.112 29.811-78.27 97.431-37.11-29.812" fill="#f03f21"/><path d="M115.782 102.003l61.275-76.276 30.89 24.813-61.276 76.276-30.889-24.813" fill="#95431d"/><path d="M124.782 85.89c6.51-19.43 14.08-28.853 31.651-39.398l34.734 27.903c-6.51 19.432-14.079 28.853-31.651 39.398-11.577-9.3-23.156-18.6-34.734-27.902" fill="#72727e"/><path d="M133.236 80.69l19.94-24.822a3.92 3.92 0 015.512-.601l23.424 18.818a3.92 3.92 0 01.601 5.511l-19.94 24.821a3.92 3.92 0 01-5.512.602L133.837 86.2a3.92 3.92 0 01-.6-5.512" fill="#e3e2e3"/><path d="M90.248 91.761c-4.221-3.39-4.894-9.562-1.503-13.784 3.391-4.22 9.562-4.894 13.783-1.502 4.221 3.39 4.894 9.562 1.503 13.782-3.39 4.222-9.562 4.895-13.783 1.504" fill="#e4e4f5"/></svg>