<svg width="45" height="88" viewBox="0 0 45 88" fill="none" xmlns="http://www.w3.org/2000/svg">
<path d="M24.3567 7.69741C24.271 7.37497 23.9412 7.18406 23.6232 7.27007C23.546 7.29078 23.4717 7.31399 23.3997 7.33856C22.8528 7.52652 22.3919 7.87809 22.0556 8.33C21.719 7.87809 21.2581 7.52652 20.711 7.33833C20.6394 7.31399 20.5652 7.29078 20.4882 7.27007C20.1679 7.1836 19.8399 7.37474 19.7544 7.69741C19.6689 8.01962 19.8587 8.35071 20.1783 8.43695C20.2291 8.45083 20.2783 8.46585 20.3248 8.48178C21.0017 8.71456 21.4565 9.38698 21.4565 10.155V20.197C21.4565 20.5306 21.7247 20.8009 22.0556 20.8009C22.3865 20.8009 22.6546 20.5306 22.6546 20.197V10.155C22.6546 9.38698 23.1094 8.71456 23.7857 8.48201C23.8331 8.46585 23.8821 8.45083 23.9329 8.43695C24.2527 8.35071 24.4423 8.01962 24.3567 7.69741Z" fill="#22984F"/>
<path d="M31.7437 2.95235e-06C19.86 2.30259 23.466 7.82753 23.466 7.82753L23.6615 8.14792L31.7437 2.95235e-06Z" fill="#90C84B"/>
<path d="M31.7439 -7.92163e-07C29.4598 11.9803 23.9794 8.34497 23.9794 8.34497L23.6616 8.14791L31.7439 -7.92163e-07Z" fill="#47B754"/>
<path d="M12.4912 -7.92163e-07C14.7752 11.9803 20.2555 8.34497 20.2555 8.34497L20.5733 8.14791L12.4912 -7.92163e-07Z" fill="#90C84B"/>
<path d="M12.4912 2.95235e-06C24.3748 2.30259 20.7688 7.82753 20.7688 7.82753L20.5734 8.14792L12.4912 2.95235e-06Z" fill="#47B754"/>
<path d="M24.3567 19.6349C24.271 19.3125 23.9412 19.1216 23.6232 19.2076C23.546 19.2283 23.4717 19.2515 23.3997 19.2761C22.8528 19.464 22.3919 19.8156 22.0556 20.2675C21.719 19.8156 21.2581 19.464 20.711 19.2758C20.6394 19.2515 20.5652 19.2283 20.4882 19.2076C20.1679 19.1211 19.8399 19.3122 19.7544 19.6349C19.6689 19.9571 19.8587 20.2882 20.1783 20.3745C20.2291 20.3883 20.2783 20.4033 20.3248 20.4193C21.0017 20.6521 21.4565 21.3245 21.4565 22.0925V32.1345C21.4565 32.4681 21.7247 32.7384 22.0556 32.7384C22.3865 32.7384 22.6546 32.4681 22.6546 32.1345V22.0925C22.6546 21.3245 23.1094 20.6521 23.7857 20.4195C23.8331 20.4033 23.8821 20.3883 23.9329 20.3745C24.2527 20.2882 24.4423 19.9571 24.3567 19.6349Z" fill="#218C4B"/>
<path d="M9.75 10.6847C13.6127 25.248 20.0494 20.2803 20.0494 20.2803L20.4238 20.0091L9.75 10.6847Z" fill="#90C84B"/>
<path d="M9.75 10.6847C24.5984 12.4669 20.6366 19.597 20.6366 19.597L20.4238 20.0091L9.75 10.6847Z" fill="#47B754"/>
<path d="M34.4218 10.6847C30.5592 25.248 24.1225 20.2803 24.1225 20.2803L23.748 20.0091L34.4218 10.6847Z" fill="#90C84B"/>
<path d="M34.4219 10.6847C19.5736 12.4669 23.5353 19.597 23.5353 19.597L23.7482 20.0091L34.4219 10.6847Z" fill="#47B754"/>
<path d="M24.3567 31.5759C24.271 31.2534 23.9412 31.0625 23.6232 31.1485C23.546 31.1695 23.4717 31.1925 23.3997 31.217C22.8528 31.405 22.3919 31.7566 22.0556 32.2085C21.719 31.7566 21.2581 31.405 20.711 31.2168C20.6394 31.1925 20.5652 31.1695 20.4882 31.1485C20.1679 31.0621 19.8399 31.2532 19.7544 31.5759C19.6689 31.8981 19.8587 32.2292 20.1783 32.3154C20.2291 32.3293 20.2783 32.3443 20.3248 32.3603C21.0017 32.593 21.4565 33.2655 21.4565 34.0334V44.0755C21.4565 44.4091 21.7247 44.6794 22.0556 44.6794C22.3865 44.6794 22.6546 44.4091 22.6546 44.0755V34.0334C22.6546 33.2655 23.1094 32.593 23.7857 32.3605C23.8331 32.3443 23.8821 32.3293 23.9329 32.3154C24.2527 32.2292 24.4423 31.8981 24.3567 31.5759Z" fill="#208045"/>
<path d="M8.59302 22.5037C13.5386 37.8167 20.1236 32.1466 20.1236 32.1466L20.5076 31.8358L8.59302 22.5037Z" fill="#90C84B"/>
<path d="M8.59302 22.5036C24.5336 23.5497 20.7114 31.3838 20.7114 31.3838L20.5075 31.8357L8.59302 22.5036Z" fill="#47B754"/>
<path d="M35.5755 22.5037C30.6299 37.8167 24.0448 32.1466 24.0448 32.1466L23.6609 31.8358L35.5755 22.5037Z" fill="#90C84B"/>
<path d="M35.5757 22.5036C19.6349 23.5497 23.4572 31.3838 23.4572 31.3838L23.661 31.8357L35.5757 22.5036Z" fill="#47B754"/>
<path d="M24.3567 43.5544C24.271 43.232 23.9412 43.041 23.6232 43.1271C23.546 43.148 23.4717 43.171 23.3997 43.1955C22.8528 43.3835 22.3919 43.7351 22.0556 44.187C21.719 43.7351 21.2581 43.3835 20.711 43.1953C20.6394 43.171 20.5652 43.148 20.4882 43.1271C20.1679 43.0406 19.8399 43.2317 19.7544 43.5544C19.6689 43.8766 19.8587 44.2077 20.1783 44.2939C20.2291 44.3078 20.2783 44.3228 20.3248 44.3388C21.0017 44.5715 21.4565 45.244 21.4565 46.0119V56.054C21.4565 56.3876 21.7247 56.6579 22.0556 56.6579C22.3865 56.6579 22.6546 56.3876 22.6546 56.054V46.0119C22.6546 45.244 23.1094 44.5715 23.7857 44.339C23.8331 44.3228 23.8821 44.3078 23.9329 44.2939C24.2527 44.2077 24.4423 43.8766 24.3567 43.5544Z" fill="#1E7440"/>
<path d="M6.30469 33.1411C12.1272 51.1693 19.8798 44.4936 19.8798 44.4936L20.3317 44.1277L6.30469 33.1411Z" fill="#90C84B"/>
<path d="M6.30469 33.1411C25.0715 34.3726 20.5716 43.5957 20.5716 43.5957L20.3317 44.1277L6.30469 33.1411Z" fill="#47B754"/>
<path d="M37.7954 33.1411C31.9728 51.1693 24.2202 44.4936 24.2202 44.4936L23.7683 44.1277L37.7954 33.1411Z" fill="#90C84B"/>
<path d="M37.7953 33.1411C19.0286 34.3726 23.5284 43.5957 23.5284 43.5957L23.7683 44.1277L37.7953 33.1411Z" fill="#47B754"/>
<path d="M22.0499 62.4913H3.62891L9.13971 84.3166C9.59814 86.1324 11.2199 87.4033 13.0784 87.4033H22.0499H31.0213C32.8798 87.4033 34.5016 86.1324 34.96 84.3166L40.4708 62.4913H22.0499Z" fill="#747888"/>
<path d="M22.05 57.3259H0L1.08501 61.3351C1.26964 62.0177 1.88471 62.4913 2.58668 62.4913H22.05H41.5133C42.2153 62.4913 42.8304 62.0177 43.015 61.3351L44.1 57.3259H22.05Z" fill="#D9D9DB"/>
<path d="M22.0499 54.7212C8.76141 54.9854 3.62891 57.3258 3.62891 57.3258H22.0499H40.4708C40.4708 57.3258 35.3383 54.9854 22.0499 54.7212Z" fill="#AC8059"/>
</svg>
