<svg width="45" height="76" viewBox="0 0 45 76" fill="none" xmlns="http://www.w3.org/2000/svg">
<path d="M31.7095 1.88521e-06C19.8258 2.30259 23.4318 7.82753 23.4318 7.82753L23.6273 8.14792L31.7095 1.88521e-06Z" fill="#90C84B"/>
<path d="M31.7096 -2.11735e-07C29.4256 11.9803 23.9452 8.34497 23.9452 8.34497L23.6274 8.14791L31.7096 -2.11735e-07Z" fill="#47B754"/>
<path d="M12.457 -2.11735e-07C14.741 11.9803 20.2213 8.34497 20.2213 8.34497L20.5392 8.14791L12.457 -2.11735e-07Z" fill="#90C84B"/>
<path d="M12.457 1.88521e-06C24.3406 2.30259 20.7346 7.82753 20.7346 7.82753L20.5392 8.14792L12.457 1.88521e-06Z" fill="#47B754"/>
<path d="M24.3224 19.6349C24.2367 19.3125 23.9069 19.1216 23.5889 19.2076C23.5117 19.2285 23.4374 19.2515 23.3654 19.2761C22.8185 19.464 22.3576 19.8156 22.0213 20.2675C21.6848 19.8156 21.2239 19.464 20.6768 19.2758C20.6052 19.2515 20.531 19.2285 20.454 19.2076C20.1337 19.1211 19.8058 19.3122 19.7202 19.6349C19.6347 19.9571 19.8245 20.2882 20.1441 20.3744C20.1949 20.3883 20.2441 20.4033 20.2906 20.4193C20.9675 20.6521 21.4223 21.3245 21.4223 22.0925V32.1345C21.4223 32.4681 21.6904 32.7384 22.0213 32.7384C22.3522 32.7384 22.6204 32.4681 22.6204 32.1345V22.0925C22.6204 21.3245 23.0752 20.6521 23.7514 20.4195C23.7988 20.4033 23.8478 20.3883 23.8985 20.3744C24.2184 20.2882 24.408 19.9571 24.3224 19.6349Z" fill="#218C4B"/>
<path d="M9.71558 10.6847C13.5782 25.248 20.015 20.2803 20.015 20.2803L20.3894 20.0091L9.71558 10.6847Z" fill="#90C84B"/>
<path d="M9.71558 10.6847C24.564 12.4669 20.6022 19.597 20.6022 19.597L20.3894 20.0091L9.71558 10.6847Z" fill="#47B754"/>
<path d="M34.3877 10.6847C30.525 25.248 24.0883 20.2803 24.0883 20.2803L23.7139 20.0091L34.3877 10.6847Z" fill="#90C84B"/>
<path d="M34.3879 10.6847C19.5394 12.4669 23.5011 19.597 23.5011 19.597L23.714 20.0091L34.3879 10.6847Z" fill="#47B754"/>
<path d="M24.3224 31.5759C24.2367 31.2535 23.9069 31.0625 23.5889 31.1486C23.5117 31.1695 23.4374 31.1925 23.3654 31.217C22.8185 31.405 22.3576 31.7566 22.0213 32.2085C21.6848 31.7566 21.2239 31.405 20.6768 31.2168C20.6052 31.1925 20.531 31.1695 20.454 31.1486C20.1337 31.0621 19.8058 31.2532 19.7202 31.5759C19.6347 31.8981 19.8245 32.2292 20.1441 32.3154C20.1949 32.3293 20.2441 32.3443 20.2906 32.3603C20.9675 32.593 21.4223 33.2655 21.4223 34.0334V44.0755C21.4223 44.4091 21.6904 44.6794 22.0213 44.6794C22.3522 44.6794 22.6204 44.4091 22.6204 44.0755V34.0334C22.6204 33.2655 23.0752 32.593 23.7514 32.3605C23.7988 32.3443 23.8478 32.3293 23.8985 32.3154C24.2184 32.2292 24.408 31.8981 24.3224 31.5759Z" fill="#208045"/>
<path d="M8.55884 22.5037C13.5045 37.8167 20.0894 32.1466 20.0894 32.1466L20.4734 31.8358L8.55884 22.5037Z" fill="#90C84B"/>
<path d="M8.55884 22.5037C24.4996 23.5497 20.6773 31.3839 20.6773 31.3839L20.4735 31.8358L8.55884 22.5037Z" fill="#47B754"/>
<path d="M35.5414 22.5037C30.5957 37.8167 24.0107 32.1466 24.0107 32.1466L23.6267 31.8358L35.5414 22.5037Z" fill="#90C84B"/>
<path d="M35.5415 22.5037C19.6008 23.5497 23.423 31.3839 23.423 31.3839L23.6269 31.8358L35.5415 22.5037Z" fill="#47B754"/>
<path d="M22.0499 50.9249H3.62891L9.13972 72.7502C9.59815 74.5661 11.2199 75.8369 13.0784 75.8369H22.0499H31.0214C32.8799 75.8369 34.5017 74.5661 34.9601 72.7502L40.4709 50.9249H22.0499Z" fill="#747888"/>
<path d="M22.0501 45.7595H0L1.08501 49.7687C1.26964 50.4514 1.88472 50.9249 2.58669 50.9249H22.0501H41.5134C42.2154 50.9249 42.8305 50.4514 43.0151 49.7687L44.1001 45.7595H22.0501Z" fill="#D9D9DB"/>
<path d="M22.0499 43.1549C8.76142 43.4191 3.62891 45.7594 3.62891 45.7594H22.0499H40.4709C40.4709 45.7594 35.3384 43.4191 22.0499 43.1549Z" fill="#AC8059"/>
<path d="M24.3224 7.69743C24.2367 7.37499 23.9069 7.18407 23.5889 7.27009C23.5117 7.29102 23.4374 7.314 23.3654 7.33858C22.8185 7.52654 22.3576 7.8781 22.0213 8.33002C21.6848 7.8781 21.2239 7.52654 20.6768 7.33835C20.6052 7.314 20.531 7.29102 20.454 7.27009C20.1337 7.18362 19.8058 7.37476 19.7202 7.69743C19.6347 8.01964 19.8245 8.35073 20.1441 8.43697C20.1949 8.45085 20.2441 8.46587 20.2906 8.4818C20.9675 8.71458 21.4223 9.387 21.4223 10.155V20.197C21.4223 20.5306 21.6904 20.801 22.0213 20.801C22.3522 20.801 22.6204 20.5306 22.6204 20.197V10.155C22.6204 9.387 23.0752 8.71458 23.7514 8.48202C23.7988 8.46587 23.8478 8.45085 23.8985 8.43697C24.2184 8.35073 24.408 8.01964 24.3224 7.69743Z" fill="#22984F"/>
</svg>
