<svg width="45" height="64" viewBox="0 0 45 64" fill="none" xmlns="http://www.w3.org/2000/svg">
<path d="M31.708 2.65336e-05C19.8244 2.30262 23.4304 7.82756 23.4304 7.82756L23.6258 8.14795L31.708 2.65336e-05Z" fill="#90C84B"/>
<path d="M31.7081 -3.6943e-06C29.4241 11.9803 23.9438 8.34497 23.9438 8.34497L23.626 8.14791L31.7081 -3.6943e-06Z" fill="#47B754"/>
<path d="M12.4553 -3.6943e-06C14.7393 11.9803 20.2196 8.34497 20.2196 8.34497L20.5375 8.14791L12.4553 -3.6943e-06Z" fill="#90C84B"/>
<path d="M12.4553 2.65336e-05C24.3389 2.30262 20.7329 7.82756 20.7329 7.82756L20.5375 8.14795L12.4553 2.65336e-05Z" fill="#47B754"/>
<path d="M24.321 19.6349C24.2353 19.3125 23.9055 19.1216 23.5875 19.2076C23.5103 19.2283 23.436 19.2515 23.364 19.2761C22.8171 19.464 22.3562 19.8156 22.0199 20.2675C21.6834 19.8156 21.2225 19.464 20.6753 19.2758C20.6038 19.2515 20.5295 19.2283 20.4525 19.2076C20.1323 19.1211 19.8043 19.3123 19.7188 19.6349C19.6332 19.9571 19.823 20.2882 20.1426 20.3745C20.1934 20.3883 20.2426 20.4034 20.2891 20.4193C20.966 20.6521 21.4209 21.3245 21.4209 22.0925V32.1345C21.4209 32.4681 21.689 32.7384 22.0199 32.7384C22.3508 32.7384 22.6189 32.4681 22.6189 32.1345V22.0925C22.6189 21.3245 23.0738 20.6521 23.75 20.4195C23.7974 20.4034 23.8464 20.3883 23.8972 20.3745C24.217 20.2882 24.4066 19.9571 24.321 19.6349Z" fill="#218C4B"/>
<path d="M9.71436 10.6848C13.577 25.248 20.0137 20.2804 20.0137 20.2804L20.3882 20.0092L9.71436 10.6848Z" fill="#90C84B"/>
<path d="M9.71436 10.6848C24.5627 12.467 20.601 19.597 20.601 19.597L20.3881 20.0091L9.71436 10.6848Z" fill="#47B754"/>
<path d="M34.386 10.6848C30.5233 25.248 24.0866 20.2804 24.0866 20.2804L23.7122 20.0092L34.386 10.6848Z" fill="#90C84B"/>
<path d="M34.3861 10.6848C19.5377 12.467 23.4994 19.597 23.4994 19.597L23.7123 20.0091L34.3861 10.6848Z" fill="#47B754"/>
<path d="M22.0502 38.3697H3.62915L9.13997 60.195C9.5984 62.0108 11.2202 63.2817 13.0787 63.2817H22.0502H31.0216C32.8802 63.2817 34.5019 62.0108 34.9603 60.195L40.4712 38.3697H22.0502Z" fill="#747888"/>
<path d="M22.05 33.2042H0L1.08501 37.2135C1.26964 37.8961 1.88471 38.3697 2.58668 38.3697H22.05H41.5134C42.2153 38.3697 42.8304 37.8961 43.015 37.2135L44.1 33.2042H22.05Z" fill="#D9D9DB"/>
<path d="M22.0502 30.5996C8.76167 30.8638 3.62915 33.2042 3.62915 33.2042H22.0502H40.4712C40.4712 33.2042 35.3386 30.8638 22.0502 30.5996Z" fill="#AC8059"/>
<path d="M24.321 7.69747C24.2353 7.37503 23.9055 7.18411 23.5875 7.27013C23.5103 7.29084 23.436 7.31405 23.364 7.33862C22.8171 7.52658 22.3562 7.87814 22.0199 8.33006C21.6834 7.87814 21.2225 7.52658 20.6753 7.33839C20.6038 7.31405 20.5295 7.29084 20.4525 7.27013C20.1323 7.18366 19.8043 7.3748 19.7188 7.69747C19.6332 8.01968 19.823 8.35077 20.1426 8.43701C20.1934 8.45089 20.2426 8.46591 20.2891 8.48184C20.966 8.71462 21.4209 9.38704 21.4209 10.155V20.1971C21.4209 20.5307 21.689 20.801 22.0199 20.801C22.3508 20.801 22.6189 20.5307 22.6189 20.1971V10.155C22.6189 9.38704 23.0738 8.71462 23.75 8.48206C23.7974 8.46591 23.8464 8.45089 23.8972 8.43701C24.217 8.35077 24.4066 8.01968 24.321 7.69747Z" fill="#22984F"/>
</svg>
